<?xml version="1.0" encoding="utf-8"?>
<!-- Generator: Adobe Illustrator 23.0.1, SVG Export Plug-In . SVG Version: 6.00 Build 0)  -->
<svg version="1.1" id="Layer_1" xmlns="http://www.w3.org/2000/svg" xmlns:xlink="http://www.w3.org/1999/xlink" x="0px" y="0px"
	 viewBox="0 0 1000 511.9" style="enable-background:new 0 0 1000 511.9;" xml:space="preserve">
<style type="text/css">
	.st0{fill:#00ADF0;}
	.st1{fill:#231F20;}
	.st2{fill:#FFFFFF;}
	.st3{clip-path:url(#SVGID_2_);fill:#FFFFFF;}
	.st4{clip-path:url(#SVGID_2_);fill:#231F20;}
	.st5{clip-path:url(#SVGID_4_);fill:none;stroke:#1D1D1B;stroke-width:15.1971;stroke-miterlimit:10;}
	.st6{clip-path:url(#SVGID_6_);fill:#FFFFFF;}
	.st7{clip-path:url(#SVGID_6_);fill:#00ADF0;}
	.st8{clip-path:url(#SVGID_6_);fill:#1D1D1B;}
	.st9{fill:#A6A8AB;}
	.st10{fill:#1D1D1B;}
	.st11{clip-path:url(#SVGID_8_);fill:#00ADF0;}
	.st12{clip-path:url(#SVGID_8_);fill:#FFFFFF;}
	.st13{clip-path:url(#SVGID_8_);fill:none;stroke:#1D1D1B;stroke-width:2.338;stroke-miterlimit:10;}
	.st14{clip-path:url(#SVGID_8_);fill:#1D1D1B;}
	.st15{clip-path:url(#SVGID_10_);fill:#00ADF0;}
	.st16{clip-path:url(#SVGID_10_);fill:#FFFFFF;}
	.st17{clip-path:url(#SVGID_12_);fill:#FFFFFF;}
	.st18{clip-path:url(#SVGID_12_);fill:#1D1D1B;}
	.st19{clip-path:url(#SVGID_14_);fill:#FFFFFF;}
	.st20{clip-path:url(#SVGID_14_);fill:#1D1D1B;}
	.st21{clip-path:url(#SVGID_16_);fill:none;stroke:#FFFFFF;stroke-width:1.169;stroke-miterlimit:10;}
	.st22{fill:none;stroke:#1D1D1B;stroke-width:4.3721;stroke-miterlimit:10;}
	.st23{clip-path:url(#SVGID_18_);fill:none;stroke:#00ADF0;stroke-width:2.2468;stroke-miterlimit:10;}
	.st24{fill:none;stroke:#00ADF0;stroke-width:2.2468;stroke-miterlimit:10;}
	.st25{fill:none;stroke:#1D1D1B;stroke-width:2.2468;stroke-miterlimit:10;}
	.st26{clip-path:url(#SVGID_20_);fill:#FFFFFF;}
	.st27{clip-path:url(#SVGID_20_);fill:none;stroke:#1D1D1B;stroke-width:2.2468;stroke-miterlimit:10;}
	.st28{fill:none;stroke:#1D1D1B;stroke-width:2.2468;stroke-linecap:round;stroke-linejoin:round;stroke-miterlimit:10;}
	.st29{clip-path:url(#SVGID_22_);fill:#FFFFFF;}
	.st30{clip-path:url(#SVGID_24_);fill:#FFFFFF;}
	.st31{clip-path:url(#SVGID_26_);fill:#FFFFFF;}
	.st32{clip-path:url(#SVGID_28_);fill:#FFFFFF;}
	.st33{fill:none;stroke:#1D1D1B;stroke-width:9.3521;stroke-miterlimit:10;}
	.st34{clip-path:url(#SVGID_30_);fill:#1D1D1B;}
	.st35{clip-path:url(#SVGID_30_);fill:none;stroke:#1D1D1B;stroke-width:3.507;stroke-miterlimit:10;}
	.st36{clip-path:url(#SVGID_30_);fill:#FFFFFF;}
	.st37{clip-path:url(#SVGID_32_);fill:#00ADF0;}
	.st38{clip-path:url(#SVGID_32_);fill:none;stroke:#1D1D1B;stroke-width:2.338;stroke-miterlimit:10;}
	.st39{clip-path:url(#SVGID_34_);fill:#FFFFFF;}
	.st40{clip-path:url(#SVGID_36_);fill:#1D1D1B;}
	.st41{clip-path:url(#SVGID_36_);fill:none;stroke:#1D1D1B;stroke-width:8.4975;stroke-miterlimit:10;}
	.st42{fill:none;stroke:#FFFFFF;stroke-width:1.169;stroke-linecap:round;stroke-linejoin:round;stroke-miterlimit:10;}
	.st43{clip-path:url(#SVGID_38_);fill:#FFFFFF;}
	.st44{clip-path:url(#SVGID_38_);fill:#00ADF0;}
	.st45{fill:none;stroke:#1D1D1B;stroke-width:1.169;stroke-miterlimit:10;}
	.st46{clip-path:url(#SVGID_40_);fill:#FFFFFF;}
	.st47{clip-path:url(#SVGID_42_);fill:#1D1D1B;}
	.st48{clip-path:url(#SVGID_42_);fill:none;stroke:#1D1D1B;stroke-width:1.169;stroke-miterlimit:10;}
	.st49{clip-path:url(#SVGID_42_);fill:#FFFFFF;}
	.st50{clip-path:url(#SVGID_44_);fill:#1D1D1B;}
	.st51{clip-path:url(#SVGID_44_);fill:none;stroke:#1D1D1B;stroke-width:1.169;stroke-miterlimit:10;}
	.st52{clip-path:url(#SVGID_46_);fill:#FFFFFF;}
	.st53{clip-path:url(#SVGID_46_);fill:none;stroke:#1D1D1B;stroke-width:1.169;stroke-miterlimit:10;}
	.st54{clip-path:url(#SVGID_48_);fill:#FFFFFF;}
	.st55{clip-path:url(#SVGID_48_);fill:#00ADED;}
	.st56{clip-path:url(#SVGID_48_);fill:none;stroke:#00ADF0;stroke-width:1.169;stroke-miterlimit:10;}
	.st57{fill:#00ADED;}
	.st58{clip-path:url(#SVGID_50_);fill:none;stroke:#00ADF0;stroke-width:1.169;stroke-miterlimit:10;}
	.st59{clip-path:url(#SVGID_50_);fill:#FFFFFF;}
	.st60{clip-path:url(#SVGID_50_);fill:#00ADED;}
	.st61{clip-path:url(#SVGID_52_);fill:none;stroke:#FFFFFF;stroke-width:11.6901;stroke-miterlimit:10;}
	.st62{clip-path:url(#SVGID_54_);fill:#00ADF0;}
	.st63{clip-path:url(#SVGID_56_);fill:#1D1D1B;}
	.st64{clip-path:url(#SVGID_58_);fill:#FFFFFF;}
	.st65{clip-path:url(#SVGID_60_);fill:#FFFFFF;}
	.st66{clip-path:url(#SVGID_62_);fill:#FFFFFF;}
	.st67{clip-path:url(#SVGID_64_);fill:#1D1D1B;}
	.st68{clip-path:url(#SVGID_64_);fill:#FFFFFF;}
	.st69{clip-path:url(#SVGID_66_);fill:#FFFFFF;}
</style>
<rect x="-24.9" y="0" class="st0" width="1050" height="516"/>
<g>
	<g>
		<path class="st1" d="M144.9,336.6c0-3.9,1.4-7.2,4.1-9.9c2.7-2.7,6.2-4.1,10.3-4.1c4.1,0,7.5,1.4,10.3,4.1c2.7,2.7,4.1,6,4.1,9.9
			c0,3.9-1.4,7.2-4.1,9.9c-2.7,2.7-6.1,4.1-10.3,4.1c-4.1,0-7.6-1.4-10.3-4.1C146.2,343.7,144.9,340.4,144.9,336.6z M155,341.2
			c1.1,1.2,2.5,1.8,4.3,1.8s3.1-0.6,4.3-1.8c1.1-1.3,1.7-2.8,1.7-4.6c0-1.9-0.6-3.4-1.7-4.6c-1.1-1.2-2.5-1.8-4.3-1.8
			s-3.2,0.6-4.3,1.8c-1.1,1.2-1.7,2.7-1.7,4.6C153.3,338.4,153.9,340,155,341.2z"/>
		<path class="st1" d="M213.5,350h-35.8v-26.9h8.3v19.8h5.6v-19.8h8.2v19.8h5.6v-19.8h8.2V350z"/>
		<path class="st1" d="M225.4,350h-7v-26.9h8v13.4l10.4-13.4h6.8V350h-7.9v-13.2L225.4,350z"/>
		<path class="st1" d="M260.6,350h-12.3v-26.9H269v6.7h-12.4v2.1h4c3.2,0,5.9,0.8,7.8,2.5c1.9,1.6,2.9,3.8,2.9,6.5
			c0,2.6-1,4.8-3,6.5C266.5,349.2,263.9,350,260.6,350z M256.6,337.8v5.3h3.3c0.9,0,1.7-0.2,2.3-0.7c0.6-0.5,0.9-1.1,0.9-1.9
			c0-0.8-0.3-1.4-0.9-2c-0.6-0.5-1.3-0.8-2.3-0.8H256.6z"/>
		<path class="st1" d="M274.2,336.6c0-3.9,1.4-7.2,4.1-9.9c2.7-2.7,6.2-4.1,10.3-4.1c4.1,0,7.5,1.4,10.3,4.1c2.7,2.7,4.1,6,4.1,9.9
			c0,3.9-1.4,7.2-4.1,9.9c-2.7,2.7-6.1,4.1-10.3,4.1c-4.1,0-7.6-1.4-10.3-4.1C275.5,343.7,274.2,340.4,274.2,336.6z M284.3,341.2
			c1.1,1.2,2.5,1.8,4.3,1.8s3.1-0.6,4.3-1.8c1.1-1.3,1.7-2.8,1.7-4.6c0-1.9-0.6-3.4-1.7-4.6c-1.1-1.2-2.5-1.8-4.3-1.8
			s-3.2,0.6-4.3,1.8c-1.1,1.2-1.7,2.7-1.7,4.6C282.6,338.4,283.2,340,284.3,341.2z"/>
		<path class="st1" d="M315.3,350H307v-26.9h8.3v10l7.6-10h9.7l-9.5,12.5l11.4,14.4h-10.1l-9.1-11.6V350z"/>
	</g>
	<g>
		<path class="st1" d="M159.8,396.1h-14.2v-26.9h13.6c2.5,0,4.6,0.6,6.1,1.8c1.6,1.2,2.4,2.9,2.4,5.1c0,1.3-0.4,2.4-1.1,3.3
			c-0.7,0.9-1.5,1.5-2.1,1.8c1.2,0.2,2.3,1,3.4,2.3c1.1,1.3,1.7,2.9,1.7,4.8c0,2.3-0.9,4.2-2.7,5.6
			C165.2,395.3,162.8,396.1,159.8,396.1z M153.9,375.6v3.6h4.2c0.6,0,1-0.2,1.4-0.5c0.4-0.3,0.6-0.7,0.6-1.2c0-0.6-0.2-1-0.6-1.4
			c-0.4-0.3-0.8-0.5-1.4-0.5H153.9z M153.9,385v4.5h4.3c0.7,0,1.3-0.2,1.8-0.6c0.4-0.4,0.7-0.9,0.7-1.6s-0.2-1.2-0.7-1.6
			c-0.5-0.4-1-0.6-1.8-0.6H153.9z"/>
		<path class="st1" d="M191.5,396.1h-8.3v-26.9h24.4v26.9h-8.2v-19.8h-7.9V396.1z"/>
		<path class="st1" d="M212.4,369.2h12.4c3.1,0,5.6,0.8,7.4,2.5c1.9,1.6,2.8,3.7,2.8,6.3c0,2.6-0.9,4.7-2.8,6.3
			c-1.8,1.6-4.3,2.5-7.4,2.5h-4.1v9.4h-8.3V369.2z M220.7,380.7h3c0.8,0,1.5-0.2,2.1-0.7c0.5-0.4,0.8-1,0.8-1.7
			c0-0.7-0.3-1.3-0.8-1.7c-0.5-0.4-1.2-0.7-2-0.7h-3V380.7z"/>
		<path class="st1" d="M259.5,396.1h-21.3v-26.9h21.1v7.1h-12.8v2.4h10.1v6.5h-10.1v3.8h13V396.1z"/>
		<path class="st1" d="M273.5,396.6c-4.2,0-7.7-0.8-10.4-2.5v-7.7c1.2,0.9,2.6,1.6,4.3,2.1c1.7,0.5,3.3,0.8,5,0.8
			c3.1,0,4.6-0.8,4.6-2.3c0-1.1-1.1-1.7-3.4-1.7h-4v-6.3h4.4c1.7,0,2.6-0.5,2.6-1.5c0-1.2-1.3-1.7-3.9-1.7c-3.2,0-6.1,0.7-8.8,2v-7
			c2.8-1.4,6-2.1,9.6-2.1c3.5,0,6.2,0.8,8.2,2.3c2,1.5,3,3.4,3,5.6c0,2.6-1.1,4.4-3.2,5.4c1.2,0.5,2.1,1.3,2.8,2.4
			c0.7,1,1.1,2.3,1.1,3.6c0,2.5-1.1,4.5-3.3,6.2C280.1,395.8,277.1,396.6,273.5,396.6z"/>
		<path class="st1" d="M310.4,396.1h-21.3v-26.9h21.1v7.1h-12.8v2.4h10.1v6.5h-10.1v3.8h13V396.1z"/>
		<path class="st1" d="M322.6,396.1h-8.3v-26.9h8.3v9.1h8.2v-9.1h8.3v26.9h-8.3v-10.6h-8.2V396.1z"/>
		<path class="st1" d="M342.7,376.3v-7.1h23.6v7.1h-7.7v19.8h-8.3v-19.8H342.7z"/>
		<path class="st1" d="M372.6,396.1h-8.5l11.1-27h7.9l11.1,27h-8.9l-1.9-5h-8.8L372.6,396.1z M379,378.5l-2,6.4h4L379,378.5z"/>
		<path class="st1" d="M424.4,401h-7.8v-5h-19.7v-26.9h8.3V389h7.6v-19.8h8.2V389h3.4V401z"/>
		<path class="st1" d="M435,396.1h-7v-26.9h8v13.4l10.4-13.4h6.8v26.9h-7.9v-13.2L435,396.1z"/>
		<path class="st1" d="M465.1,396.1h-9.6l8-10.5c-1.5-0.8-2.7-1.8-3.6-3.2c-0.9-1.3-1.3-2.9-1.3-4.5c0-2.5,0.9-4.6,2.8-6.2
			c1.8-1.6,4.3-2.5,7.3-2.5h12.9v26.9h-8.3v-9.6h-1.1L465.1,396.1z M469.7,380.4h3.7v-4.3h-3.7c-0.8,0-1.4,0.2-1.9,0.6
			s-0.7,0.9-0.7,1.6s0.2,1.2,0.7,1.6S468.9,380.4,469.7,380.4z"/>
		<path class="st1" d="M485.1,369.2h9.6l3.9,6.4l4-6.4h9.4l-8.7,12.4l10.2,14.4h-9.6l-5.4-8.1l-5.3,8.1h-9.5l10.2-14.4L485.1,369.2z
			"/>
	</g>
	<polygon class="st2" points="48.1,324.1 48.1,343.3 55.6,343.3 55.6,397.4 74.3,397.4 74.3,324.1 	"/>
	<path class="st1" d="M57,381.5v-1.8l6,6.5v1.7L57,381.5z M57,378.9v-1.7l6,6.4v1.8L57,378.9z M57,376.4v-1.8l6,6.5v1.7L57,376.4z
		 M57,373.8V372l6,6.5v1.7L57,373.8z M57,371.2v-1.7l6,6.4v1.8L57,371.2z M57,368.6v-1.7l6,6.5v1.7L57,368.6z M56.9,366.1v-1.8
		l6.1,6.5v1.7L56.9,366.1z M56.9,363.5v-1.7l6.1,6.4v1.8L56.9,363.5z M56.9,361v-1.8l6.1,6.5v1.7L56.9,361z M56.9,358.4v-1.8
		l6.1,6.5v1.8L56.9,358.4z M56.9,355.9v-1.7l6.1,6.4v1.8L56.9,355.9z M56.9,353.4v-1.8l6.1,6.5v1.7L56.9,353.4z M56.9,350.8V349
		l6.1,6.5v1.8L56.9,350.8z M56.9,348.2v-1.7L63,353v1.7L56.9,348.2z M56.2,332.2h10.3v57.1h-3v-54h-7.3V332.2z M67,389.8v-57.5
		l6.1-6.6V396L67,389.8z M49.4,327.1v-1.7l6.3,6.8v1.7L49.4,327.1z M50.1,325.4h22.4l-6,6.3H56L50.1,325.4z M48.1,324.1v19.2h7.6
		v54.1h18.7v-73.3H48.1z"/>
	<g>
		<defs>
			<rect id="SVGID_1_" x="48.1" y="312.8" width="520" height="104.6"/>
		</defs>
		<clipPath id="SVGID_2_">
			<use xlink:href="#SVGID_1_"  style="overflow:visible;"/>
		</clipPath>
		<path class="st3" d="M131.2,378.3v19H81v-16.9c6.2-5.4,15.3-13.8,21.1-20.3c2.7-3.1,4.8-5.7,6.1-8c2.9-4.9,1.4-7,0.7-7.8
			c-0.5-0.5-1.5-0.9-2.7-0.9H82.5v-19h23.8c6.5,0,12.4,2.4,16.6,6.9c2.1,2.2,3.7,4.8,4.7,7.8c1,2.7,1.5,5.8,1.5,9
			c0,4.2-1.3,8.5-4.2,13.3c-2,3.4-4.6,7-8.2,10.9c-1.8,2-3.7,4-5.6,6H131.2z"/>
		<path class="st4" d="M130,395.7v-15.9l-6.4,6.4v3.2L130,395.7z M111.1,346.5c0.2,0.5,0.1,1.5,0.1,1.8l4.8,5.2
			c0.2-0.4,0.4-0.8,0.5-1.2L111.1,346.5z M110.5,350.2l4.6,4.9c0.1,0,0.4-0.7,0.6-1.1L111,349C110.9,349.3,110.7,349.8,110.5,350.2
			 M110.2,350.8c-0.2,0.3-0.4,0.7-0.5,1.1l4.5,4.8c0.2-0.4,0.4-0.7,0.6-1L110.2,350.8z M108.7,353.4l4.5,4.8c0.2-0.4,0.4-0.7,0.7-1
			l-4.5-4.8C109.1,352.6,109,353.1,108.7,353.4 M108.4,353.9c-0.2,0.3-0.4,0.6-0.7,1l4.4,4.7c0.2-0.3,0.5-0.7,0.7-1L108.4,353.9z
			 M107.4,355.3c-0.2,0.4-0.5,0.7-0.7,1l4.3,4.7c0.2-0.3,0.5-0.6,0.7-1L107.4,355.3z M106.3,356.7c-0.2,0.3-0.5,0.7-0.7,1l4.3,4.6
			c0.3-0.3,0.5-0.6,0.8-0.9L106.3,356.7z M105.2,358.1c-0.2,0.3-0.5,0.6-0.7,0.9l4.3,4.6c0.2-0.3,0.5-0.6,0.8-0.9L105.2,358.1z
			 M104.1,359.5c-0.2,0.3-0.5,0.5-0.8,0.9l4.3,4.7c0.3-0.3,0.5-0.6,0.8-0.9L104.1,359.5z M103,360.8c-0.2,0.3-0.5,0.6-0.8,0.9
			l4.3,4.6c0.3-0.3,0.5-0.6,0.8-0.9L103,360.8z M101.8,362c-0.2,0.3-0.5,0.6-0.8,0.9l4.3,4.6c0.2-0.2,0.5-0.5,0.8-0.9L101.8,362z
			 M100.7,363.3c-0.2,0.3-0.5,0.5-0.8,0.9l4.3,4.6c0.3-0.3,0.5-0.6,0.9-0.9L100.7,363.3z M99.4,364.6c-0.2,0.2-0.5,0.5-0.8,0.8
			l4.3,4.6c0.3-0.2,0.5-0.5,0.9-0.9L99.4,364.6z M97.4,366.7l4.3,4.6c0.3-0.2,0.6-0.5,0.9-0.8l-4.3-4.6
			C98,366.1,97.7,366.4,97.4,366.7 M101.3,371.7L97,367c-0.2,0.2-0.6,0.5-0.8,0.8l4.3,4.6C100.8,372.2,101,371.9,101.3,371.7
			 M95.8,368.3c-0.2,0.2-0.6,0.6-0.9,0.8l4.3,4.6c0.3-0.3,0.5-0.5,0.9-0.8L95.8,368.3z M94.5,369.4c-0.3,0.3-0.5,0.5-0.9,0.9
			l4.3,4.6c0.3-0.3,0.6-0.5,0.9-0.9L94.5,369.4z M123.4,385.8l6.3-6.4h-20.8l-16,6.4H123.4z M93.3,370.6c-0.2,0.2-0.5,0.5-0.9,0.8
			l4.3,4.6c0.2-0.2,0.5-0.5,0.9-0.8L93.3,370.6z M92,371.8c-0.3,0.3-0.6,0.5-0.9,0.9l4.3,4.6c0.3-0.2,0.5-0.5,0.9-0.8L92,371.8z
			 M90.8,373c-0.3,0.2-0.6,0.5-0.9,0.8l4.3,4.6c0.3-0.3,0.6-0.5,0.9-0.9L90.8,373z M90.9,382.1c-0.5,0.4-1,0.9-2,1.8v5.4h34.2v-3H92
			v-1.1l1-0.9c5-4.6,11.8-10.8,17.6-17.3c7-7.9,10.4-14.1,10.4-18.9c0-9.3-5.9-15.6-14.7-15.6H90.4v3h15.9c7.1,0,11.7,4.9,11.7,12.6
			c0,4-3.2,9.7-9.6,17C102.8,371.4,96,377.6,90.9,382.1 M89.5,374.2c-0.3,0.2-0.6,0.5-0.9,0.8l4.3,4.6c0.3-0.3,0.6-0.5,0.9-0.8
			L89.5,374.2z M88.2,375.4c-0.3,0.2-0.6,0.5-0.9,0.8l4.3,4.6c0.3-0.2,0.6-0.5,0.9-0.8L88.2,375.4z M86.1,377.3l4.3,4.6l0.9-0.8
			l-4.3-4.6C86.6,376.8,86.2,377.1,86.1,377.3 M106.3,325.6H84.1l5.9,6.4h16.2c2.3,0,4.3,0.4,6.2,1.2c1.8,0.7,3.5,1.8,4.8,3.3
			c1.3,1.4,2.4,3.1,3.1,5.1c0.7,2,1,4.2,1,6.6c0,1.2-0.2,2.6-0.7,4c-0.4,1.4-1,2.9-2,4.5c-1.7,3.2-4.3,6.7-7.9,10.8
			c-5.7,6.5-12.6,12.8-17.7,17.3c-0.2,0.2-0.4,0.3-0.5,0.5l16-6.3c3.4-3.5,5.3-5.5,7-7.3c3.5-4,6.1-7.5,8.1-10.8
			c2.7-4.6,4-8.8,4-12.7c0-3.1-0.5-5.9-1.4-8.6c-1-2.7-2.5-5.3-4.5-7.3C118.1,327.9,112.5,325.6,106.3,325.6 M83.7,325.9v1.7
			l6.2,6.6v-1.7L83.7,325.9z M131.2,378.3v19H81v-16.9c6.2-5.4,15.3-13.8,21.1-20.3c2.7-3.1,4.8-5.7,6.1-8c2.9-4.9,1.4-7,0.7-7.8
			c-0.5-0.5-1.5-0.9-2.7-0.9H82.5v-19h23.8c6.5,0,12.4,2.4,16.6,6.9c2.1,2.2,3.7,4.8,4.7,7.8c1,2.7,1.5,5.8,1.5,9
			c0,4.2-1.3,8.5-4.2,13.3c-2,3.4-4.6,7-8.2,10.9c-1.8,2-3.7,4-5.6,6H131.2z"/>
	</g>
</g>
<g>
	<g>
		<defs>
			<rect id="SVGID_3_" x="824.2" y="-42.2" width="148.1" height="147.1"/>
		</defs>
		<clipPath id="SVGID_4_">
			<use xlink:href="#SVGID_3_"  style="overflow:visible;"/>
		</clipPath>
		<path class="st5" d="M890.2,182.1l147.3-147.3 M873.7,159.4L1021,12.1 M857.2,136.7l147.3-147.3 M817,137.7l171-171 M803.9,111.6
			L971.5-56 M807.7,68.7L955-78.7 M791.2,46l147.3-147.3"/>
	</g>
	<g>
		<defs>
			<rect id="SVGID_5_" x="824.2" y="-42.2" width="148.1" height="148.1"/>
		</defs>
		<clipPath id="SVGID_6_">
			<use xlink:href="#SVGID_5_"  style="overflow:visible;"/>
		</clipPath>
		<path class="st6" d="M898.6-21.9v64.2L842.8,74l16.1-45.9c0,0,0.3-21.7,11.8-36.9C881.7-23.5,898.6-21.9,898.6-21.9"/>
		<path class="st7" d="M898.6-21.9v64.2L953.4,74l-15.1-45.9c0,0-0.3-21.7-11.8-36.9C915.5-23.5,898.6-21.9,898.6-21.9"/>
		<path class="st8" d="M842.7,74c0,0,11.9-34.8,33.4-43.4c14.2-5.6,22.4,1.4,22.4,1.4s8.8-5.6,17.5-3.5c8.5,2,21.5,14.1,29.2,29.1
			c7.8,14.9,8.1,16.4,8.1,16.4l-55.3,22.3L842.7,74z"/>
	</g>
	<rect x="883.3" y="65.5" class="st2" width="3.2" height="9.2"/>
	<rect x="890" y="56.2" class="st2" width="3.3" height="18.4"/>
	<rect x="896.8" y="47.1" class="st2" width="1.8" height="27.5"/>
	<rect x="910.7" y="65.5" class="st0" width="3.2" height="9.2"/>
	<rect x="903.9" y="56.2" class="st0" width="3.3" height="18.4"/>
	<rect x="898.6" y="47.1" class="st9" width="1.8" height="27.5"/>
	<rect x="883.3" y="83.5" class="st10" width="31.3" height="22.3"/>
</g>
<g>
	<polygon class="st2" points="383.7,132.1 465.1,215.1 465.1,132.1 	"/>
	<g>
		<defs>
			<rect id="SVGID_7_" x="383.7" y="132.1" width="81.4" height="83.7"/>
		</defs>
		<clipPath id="SVGID_8_">
			<use xlink:href="#SVGID_7_"  style="overflow:visible;"/>
		</clipPath>
		<path class="st11" d="M449.8,148h-48.5c-3.1,0-5.5,2.5-5.5,5.7v7v55.1h59.6v-55.1v-7C455.3,150.5,452.8,148,449.8,148"/>
		<path class="st12" d="M447.8,145.2h-48.5c-3.1,0-5.5,2.5-5.5,5.7v7v57.9h59.6v-57.9v-7C453.3,147.7,450.8,145.2,447.8,145.2"/>
		<path class="st12" d="M393.7,215.8v-64.9c0-2.8,2.2-5,4.9-5h48.2c2.7,0,4.9,2.3,4.9,5v64.9"/>
		<path class="st13" d="M393.7,215.8v-64.9c0-2.8,2.2-5,4.9-5h48.2c2.7,0,4.9,2.3,4.9,5v64.9"/>
		<path class="st14" d="M446.9,145.8h-48.2c-2.7,0-4.9,2.2-4.9,4.9v6.2h58.1v-6.2C451.8,148,449.6,145.8,446.9,145.8"/>
		<path class="st13" d="M446.9,145.8h-48.2c-2.7,0-4.9,2.2-4.9,4.9v6.2h58.1v-6.2C451.8,148,449.6,145.8,446.9,145.8z"/>
	</g>
	<rect x="409" y="167.1" class="st0" width="6" height="1.2"/>
	<rect x="417" y="167.1" class="st0" width="22" height="1.2"/>
	<rect x="441" y="167.1" class="st0" width="2.9" height="1.2"/>
	<rect x="409" y="169.6" class="st0" width="2.5" height="1.2"/>
	<rect x="413.5" y="169.6" class="st0" width="9.8" height="1.2"/>
	<rect x="425.3" y="169.6" class="st0" width="18.5" height="1.2"/>
	<rect x="400.3" y="172.2" class="st0" width="16.4" height="1.2"/>
	<rect x="418.8" y="172.2" class="st0" width="16.4" height="1.2"/>
	<rect x="400.3" y="174.7" class="st0" width="13.2" height="1.2"/>
	<rect x="415.5" y="174.7" class="st0" width="5.8" height="1.2"/>
	<rect x="423.3" y="174.7" class="st0" width="20.6" height="1.2"/>
	<rect x="400.3" y="177.3" class="st0" width="4.6" height="1.2"/>
	<rect x="406.9" y="177.3" class="st0" width="11.9" height="1.2"/>
	<rect x="420.9" y="177.3" class="st0" width="10.2" height="1.2"/>
	<rect x="433.1" y="177.3" class="st0" width="10.7" height="1.2"/>
	<rect x="400.3" y="179.8" class="st0" width="11.1" height="1.2"/>
	<rect x="428.1" y="179.8" class="st0" width="15.8" height="1.2"/>
	<rect x="413.6" y="179.8" class="st0" width="12.4" height="1.2"/>
	<rect x="400.3" y="182.4" class="st0" width="9.1" height="1.2"/>
	<rect x="411.5" y="182.4" class="st0" width="9.1" height="1.2"/>
	<rect x="422.6" y="182.4" class="st0" width="9.1" height="1.2"/>
	<rect x="400.3" y="184.9" class="st0" width="2.5" height="1.2"/>
	<rect x="404.9" y="184.9" class="st0" width="9.2" height="1.2"/>
	<rect x="416.1" y="185" class="st0" width="9.2" height="1.2"/>
	<rect x="427.3" y="185" class="st0" width="16.6" height="1.2"/>
	<rect x="400.3" y="187.5" class="st0" width="13.2" height="1.2"/>
	<rect x="415.5" y="187.5" class="st0" width="5.8" height="1.2"/>
	<rect x="423.3" y="187.5" class="st0" width="20.6" height="1.2"/>
	<rect x="400.3" y="190" class="st0" width="4.6" height="1.2"/>
	<rect x="406.9" y="190" class="st0" width="11.9" height="1.2"/>
	<rect x="420.9" y="190" class="st0" width="10.2" height="1.2"/>
	<rect x="433.1" y="190" class="st0" width="10.7" height="1.2"/>
	<rect x="400.3" y="192.6" class="st0" width="11.1" height="1.2"/>
	<rect x="428.1" y="192.6" class="st0" width="15.8" height="1.2"/>
	<rect x="413.6" y="192.6" class="st0" width="12.4" height="1.2"/>
	<rect x="400.3" y="195.1" class="st0" width="9.1" height="1.2"/>
	<rect x="411.5" y="195.1" class="st0" width="9.1" height="1.2"/>
	<rect x="422.6" y="195.1" class="st0" width="9.1" height="1.2"/>
	<rect x="433.1" y="195.1" class="st0" width="10.7" height="1.2"/>
	<rect x="400.3" y="197.7" class="st0" width="2.5" height="1.2"/>
	<rect x="404.9" y="197.7" class="st0" width="9.2" height="1.2"/>
	<rect x="416.1" y="197.8" class="st0" width="9.2" height="1.2"/>
	<rect x="427.3" y="197.8" class="st0" width="16.6" height="1.2"/>
	<rect x="409" y="164.6" class="st0" width="9.2" height="1.2"/>
	<rect x="420.2" y="164.6" class="st0" width="15.8" height="1.2"/>
	<rect x="438.1" y="164.6" class="st0" width="5.8" height="1.2"/>
	<rect x="429.2" y="202.9" class="st0" width="14.6" height="1.2"/>
	<rect x="405.2" y="202.9" class="st0" width="22" height="1.2"/>
	<rect x="400.3" y="202.9" class="st0" width="2.9" height="1.2"/>
	<rect x="432.7" y="205.5" class="st0" width="2.5" height="1.2"/>
	<rect x="420.9" y="205.5" class="st0" width="9.8" height="1.2"/>
	<rect x="400.3" y="205.5" class="st0" width="18.5" height="1.2"/>
	<rect x="427.5" y="208" class="st0" width="16.4" height="1.2"/>
	<rect x="408.9" y="208" class="st0" width="16.4" height="1.2"/>
	<rect x="400.3" y="208" class="st0" width="6.9" height="1.2"/>
	<rect x="430.7" y="210.6" class="st0" width="13.2" height="1.2"/>
	<rect x="422.9" y="210.6" class="st0" width="5.8" height="1.2"/>
	<rect x="400.3" y="210.6" class="st0" width="20.6" height="1.2"/>
	<rect x="439.3" y="213.1" class="st0" width="4.6" height="1.2"/>
	<rect x="425.4" y="213.1" class="st0" width="11.9" height="1.2"/>
	<rect x="413.1" y="213.1" class="st0" width="10.2" height="1.2"/>
	<rect x="400.3" y="213.1" class="st0" width="10.7" height="1.2"/>
	<rect x="426" y="200.5" class="st0" width="14.4" height="1.2"/>
	<rect x="408.2" y="200.5" class="st0" width="15.8" height="1.2"/>
	<rect x="400.3" y="200.5" class="st0" width="5.8" height="1.2"/>
	<path class="st10" d="M403.5,165.9l-1.1,2.5h2.2L403.5,165.9z M401.5,170.8h-1l2.6-6h0.9l2.6,6h-1l-0.6-1.5h-2.8L401.5,170.8z"/>
	<rect x="407.1" y="164.3" class="st10" width="0.8" height="7.5"/>
	<g>
		<defs>
			<rect id="SVGID_9_" x="383.7" y="132.1" width="81.4" height="83.7"/>
		</defs>
		<clipPath id="SVGID_10_">
			<use xlink:href="#SVGID_9_"  style="overflow:visible;"/>
		</clipPath>
		<path class="st15" d="M400.3,151.7c0,1-0.8,1.7-1.7,1.7c-0.9,0-1.7-0.8-1.7-1.7s0.8-1.7,1.7-1.7
			C399.6,150,400.3,150.8,400.3,151.7"/>
		<path class="st16" d="M406,151.7c0,1-0.8,1.7-1.7,1.7c-0.9,0-1.7-0.8-1.7-1.7s0.8-1.7,1.7-1.7C405.2,150,406,150.8,406,151.7"/>
		<path class="st16" d="M411.4,151.7c0,1-0.8,1.7-1.7,1.7c-0.9,0-1.7-0.8-1.7-1.7s0.8-1.7,1.7-1.7
			C410.6,150,411.4,150.8,411.4,151.7"/>
	</g>
</g>
<g>
	<path class="st2" d="M611.2-39.3h102V65.6h-102V-39.3z M604.6,72.4h115.3V-46.1H604.6V72.4z"/>
	<g>
		<defs>
			<rect id="SVGID_11_" x="604.6" y="-46.1" width="115.3" height="118.5"/>
		</defs>
		<clipPath id="SVGID_12_">
			<use xlink:href="#SVGID_11_"  style="overflow:visible;"/>
		</clipPath>
		<path class="st17" d="M686.4,10.1c0-0.5,0-1,0-1.5c0-1.6-0.1-3.2-0.3-4.7h-13.6v-6.6h11.9c-0.8-2.2-1.9-4.4-3.1-6.3h-15.6v34.4
			h16.3c1.2-2,2.1-4.1,2.9-6.3h-12.2v-8.8H686.4z M642.9,5.2L633.3-9H629c-1,1.5-1.8,3.2-2.6,4.9v25.6c0.6,1.3,1.2,2.6,1.9,3.8h4.9
			V1.8l7.8,11h3.8l7.7-11v23.5h6.8V-9h-6.8L642.9,5.2z"/>
		<path class="st17" d="M615.1,39h2.3v6.1h0.7V39h2.3v-0.6h-5.2V39z M634.2,41.8h3.1v-0.6h-3.1V39h3.8v-0.6h-4.5v6.8h4.6v-0.6h-4
			V41.8z M619.5,32.3v-5.6h-0.7v6.8h0.6l4.1-5.6v5.6h0.7v-6.8h-0.6L619.5,32.3z M628.6,41.6l-2.4-3.3h-0.7v6.8h0.7v-5.7l2.2,3h0.4
			l2.1-3v5.7h0.7v-6.8H631L628.6,41.6z M653.2,43.9v-3.1c-0.2,0-0.5,0-0.7,0v4.3h0.6l3.3-4.5c-0.3,0-0.6,0-0.8,0.1L653.2,43.9z
			 M643.8,45.1h0.7v-5.6c-0.2-0.1-0.5-0.1-0.7-0.2V45.1z M640.4,38.3l0,1.8c0,0.5,0,0.9,0,1.2c0,0.3,0,0.7-0.1,1
			c0,0.3-0.1,0.6-0.2,0.9c-0.1,0.4-0.2,0.7-0.4,0.9c-0.2,0.2-0.4,0.3-0.7,0.3c-0.1,0-0.2,0-0.3,0v0.7c0,0,0.1,0,0.3,0
			c0.5,0,0.9-0.2,1.1-0.4c0.3-0.3,0.5-0.7,0.6-1.3c0.2-0.6,0.2-1.6,0.3-2.9l0-1.5h2c-0.6-0.2-1.1-0.4-1.7-0.6H640.4z M648.8,40.4
			c-0.3,0-0.5-0.1-0.8-0.1l-1,1v-1.1c-0.2-0.1-0.5-0.1-0.7-0.2v5.1h0.7v-3.4l3.5,3.4h1l-3.7-3.7L648.8,40.4z M626.2-8h-0.7v2
			c0.3-0.6,0.6-1.1,0.9-1.7L626.2-8z M616.3-18.4v5.6h0.7v-6.8h-0.6l-4.1,5.6v-5.6h-0.7v6.8h0.6L616.3-18.4z M621.5-20
			c0.4,0,0.8-0.1,1.1-0.4c0.3-0.3,0.4-0.6,0.5-1.1h-0.6c0,0.3-0.1,0.5-0.3,0.7c-0.2,0.2-0.4,0.3-0.7,0.3c-0.3,0-0.5-0.1-0.7-0.3
			c-0.2-0.2-0.3-0.4-0.3-0.7h-0.6c0,0.4,0.2,0.8,0.4,1.1C620.7-20.2,621-20,621.5-20 M610.6,33.5l-3.7-3.7l3.2-3.1h-0.9l-3,2.9v-2.9
			h-0.7v6.8h0.7v-3.4l3.5,3.4H610.6z M613.8,42.5c-0.1,0.3-0.2,0.5-0.4,0.7c-0.2,0.2-0.5,0.4-0.8,0.5c-0.3,0.1-0.7,0.2-1.2,0.2v-4.5
			c0.9,0,1.5,0.2,1.9,0.7c0.4,0.4,0.6,1,0.6,1.6C613.9,42,613.9,42.3,613.8,42.5 M610.6,44c-0.9,0-1.5-0.2-1.9-0.7
			c-0.4-0.4-0.6-1-0.6-1.6c0-0.6,0.2-1.2,0.6-1.6c0.4-0.4,1.1-0.7,1.9-0.7V44z M611.3,38.8v-0.6h-0.7v0.6c-1.1,0-1.9,0.3-2.4,0.9
			c-0.6,0.6-0.8,1.2-0.8,2c0,0.8,0.3,1.5,0.8,2c0.6,0.6,1.4,0.8,2.4,0.9v0.7h0.7v-0.7c1.1,0,1.9-0.3,2.4-0.9c0.6-0.6,0.8-1.2,0.8-2
			c0-0.8-0.3-1.5-0.8-2C613.2,39.1,612.4,38.8,611.3,38.8 M606.1,6.9l3.5,3.4h1l-3.7-3.7l3.2-3.1h-0.9l-3,2.9V3.6h-0.7v6.8h0.7V6.9z
			 M606.1-16.3l3.5,3.4h1l-3.7-3.7l3.2-3.1h-0.9l-3,2.9v-2.9h-0.7v6.8h0.7V-16.3z M610.6-6.9v4.5c-0.9,0-1.5-0.2-1.9-0.7
			c-0.4-0.4-0.6-1-0.6-1.6c0-0.6,0.2-1.2,0.6-1.6C609.1-6.7,609.8-6.9,610.6-6.9 M611.3-6.9c0.9,0,1.5,0.2,1.9,0.7
			c0.4,0.4,0.6,1,0.6,1.6c0,0.3,0,0.6-0.1,0.8c-0.1,0.3-0.2,0.5-0.4,0.7c-0.2,0.2-0.5,0.4-0.8,0.5c-0.3,0.1-0.7,0.2-1.2,0.2V-6.9z
			 M607.4-4.6c0,0.8,0.3,1.5,0.8,2c0.6,0.6,1.4,0.8,2.4,0.9V-1h0.7v-0.7c1.1,0,1.9-0.3,2.4-0.9c0.6-0.6,0.8-1.2,0.8-2
			c0-0.8-0.3-1.5-0.8-2c-0.6-0.6-1.4-0.8-2.4-0.9v-0.6h-0.7v0.6c-1.1,0-1.9,0.3-2.4,0.9C607.7-6.1,607.4-5.4,607.4-4.6 M619.5-14
			v-5.6h-0.7v6.8h0.6l4.1-5.6v5.6h0.7v-6.8h-0.6L619.5-14z M700.6-3.8c-0.1,0.3-0.2,0.5-0.4,0.7c-0.2,0.2-0.5,0.4-0.8,0.5
			c-0.3,0.1-0.7,0.2-1.2,0.2v-4.5c0.9,0,1.5,0.2,1.9,0.7c0.4,0.4,0.6,1,0.6,1.6C700.7-4.3,700.7-4.1,700.6-3.8 M697.5-2.4
			c-0.9,0-1.5-0.2-1.9-0.7c-0.4-0.4-0.6-1-0.6-1.6c0-0.6,0.2-1.2,0.6-1.6c0.4-0.4,1.1-0.7,1.9-0.7V-2.4z M698.2-7.5v-0.6h-0.7v0.6
			c-1.1,0-1.9,0.3-2.4,0.9c-0.6,0.6-0.8,1.2-0.8,2c0,0.8,0.3,1.5,0.8,2c0.6,0.6,1.4,0.8,2.4,0.9V-1h0.7v-0.7c1.1,0,1.9-0.3,2.4-0.9
			c0.6-0.6,0.8-1.2,0.8-2c0-0.8-0.3-1.5-0.8-2C700.1-7.2,699.3-7.5,698.2-7.5 M696,3.6v6.8h0.6l4.1-5.6v5.6h0.7V3.6h-0.6l-4.1,5.6
			V3.6H696z M701.9,39h2.3v6.1h0.7V39h2.3v-0.6h-5.2V39z M703.9,32.3v-5.6h-0.7v6.8h0.6l4.1-5.6v5.6h0.7v-6.8H708L703.9,32.3z
			 M708-19.6l-4.1,5.6v-5.6h-0.7v6.8h0.6l4.1-5.6v5.6h0.7v-6.8H708z M703.9,9.2V3.6h-0.7v6.8h0.6l4.1-5.6v5.6h0.7V3.6H708L703.9,9.2
			z M700.6,19.4c-0.1,0.3-0.2,0.5-0.4,0.7c-0.2,0.2-0.5,0.4-0.8,0.5c-0.3,0.1-0.7,0.2-1.2,0.2v-4.5c0.9,0,1.5,0.2,1.9,0.7
			c0.4,0.4,0.6,1,0.6,1.6C700.7,18.8,700.7,19.1,700.6,19.4 M697.5,20.8c-0.9,0-1.5-0.2-1.9-0.7c-0.4-0.4-0.6-1-0.6-1.6
			c0-0.6,0.2-1.2,0.6-1.6c0.4-0.4,1.1-0.7,1.9-0.7V20.8z M698.2,15.6V15h-0.7v0.6c-1.1,0-1.9,0.3-2.4,0.9c-0.6,0.6-0.8,1.2-0.8,2
			c0,0.8,0.3,1.5,0.8,2c0.6,0.6,1.4,0.8,2.4,0.9v0.7h0.7v-0.7c1.1,0,1.9-0.3,2.4-0.9c0.6-0.6,0.8-1.2,0.8-2c0-0.8-0.3-1.5-0.8-2
			C700.1,15.9,699.3,15.6,698.2,15.6 M687.9,33.5v-6.8h-4.1l0,1.8c0,0.5,0,0.9,0,1.2c0,0.3,0,0.7-0.1,1c0,0.3-0.1,0.6-0.2,0.9
			c-0.1,0.4-0.2,0.7-0.4,0.9c-0.2,0.2-0.4,0.3-0.7,0.3c-0.1,0-0.2,0-0.3,0v0.7c0,0,0.1,0,0.3,0c0.5,0,0.9-0.2,1.1-0.4
			c0.3-0.3,0.5-0.7,0.6-1.3c0.1-0.6,0.2-1.6,0.3-2.9l0-1.5h2.7v6.1H687.9z M678.5,44.5h-2.8v-6.1H675v6.1h-2.8v-6.1h-0.7v6.8h7.7
			v-6.8h-0.7V44.5z M660.5,43.9V40c-0.2,0.1-0.5,0.1-0.7,0.2v5h0.6l4.1-5.6v5.6h0.7v-6.7c-0.3,0.1-0.6,0.3-1,0.4L660.5,43.9z
			 M684.8,41.1c-0.3,0.2-0.6,0.3-1.1,0.3h-2V39h2c0.5,0,0.8,0.1,1.1,0.3c0.3,0.2,0.4,0.5,0.4,0.9C685.2,40.6,685.1,40.9,684.8,41.1
			 M683.8,38.3H681v6.8h0.7v-3h2.1c0.7,0,1.2-0.2,1.5-0.5c0.4-0.3,0.6-0.8,0.6-1.4c0-0.6-0.2-1-0.6-1.4
			C684.9,38.5,684.4,38.3,683.8,38.3 M696,26.8v6.8h0.6l4.1-5.6v5.6h0.7v-6.8h-0.6l-4.1,5.6v-5.6H696z M700.6,42.5
			c-0.1,0.3-0.2,0.5-0.4,0.7c-0.2,0.2-0.5,0.4-0.8,0.5c-0.3,0.1-0.7,0.2-1.2,0.2v-4.5c0.9,0,1.5,0.2,1.9,0.7c0.4,0.4,0.6,1,0.6,1.6
			C700.7,42,700.7,42.3,700.6,42.5 M697.5,44c-0.9,0-1.5-0.2-1.9-0.7c-0.4-0.4-0.6-1-0.6-1.6c0-0.6,0.2-1.2,0.6-1.6
			c0.4-0.4,1.1-0.7,1.9-0.7V44z M698.2,38.8v-0.6h-0.7v0.6c-1.1,0-1.9,0.3-2.4,0.9c-0.6,0.6-0.8,1.2-0.8,2c0,0.8,0.3,1.5,0.8,2
			c0.6,0.6,1.4,0.8,2.4,0.9v0.7h0.7v-0.7c1.1,0,1.9-0.3,2.4-0.9c0.6-0.6,0.8-1.2,0.8-2c0-0.8-0.3-1.5-0.8-2
			C700.1,39.1,699.3,38.8,698.2,38.8 M687.9,43.9v-5.6h-0.7v6.8h0.6l4.1-5.6v5.6h0.7v-6.8H692L687.9,43.9z M657.2,45.1h0.7v-4.6
			c-0.2,0-0.5,0.1-0.7,0.1V45.1z M691.2,29.8l3.2-3.1h-0.9l-3,2.9v-2.9h-0.7v6.8h0.7v-3.4l3.5,3.4h1L691.2,29.8z M674.4,33.5h0.7
			v-1.7c-0.2,0.2-0.5,0.5-0.7,0.7V33.5z M692.6,21.9v-6.8H692l-4.1,5.6v-5.6h-0.7v6.8h0.6l4.1-5.6v5.6H692.6z M617,33.5v-6.8h-0.6
			l-4.1,5.6v-5.6h-0.7v6.8h0.6l4.1-5.6v5.6H617z M687.9,10.3V3.6h-3.6c0.1,0.4,0.1,0.8,0.2,1.3l0-0.6h2.7v6.1H687.9z M618,21.9v-6.1
			h2.3v-0.6h-5.2v0.6h2.3v6.1H618z M618.8,3.6v6.8h0.6l2.8-3.8c0-0.4,0-0.8,0.1-1.2l-2.8,3.8V3.6H618.8z M611.6,3.6v6.8h0.6l4.1-5.6
			v5.6h0.7V3.6h-0.6l-4.1,5.6V3.6H611.6z M622.2,2.3c-0.2,0.2-0.4,0.3-0.7,0.3c-0.3,0-0.5-0.1-0.7-0.3c-0.2-0.2-0.3-0.4-0.3-0.7
			h-0.6c0,0.4,0.2,0.8,0.4,1.1c0.3,0.3,0.7,0.4,1.1,0.4c0.4,0,0.8-0.1,1.1-0.4c0,0,0,0,0.1-0.1c0.1-0.3,0.1-0.7,0.2-1h-0.4
			C622.5,1.9,622.4,2.1,622.2,2.3 M608.7,20.1c-0.4-0.4-0.6-1-0.6-1.6c0-0.6,0.2-1.2,0.6-1.6c0.4-0.4,1.1-0.7,1.9-0.7v4.5
			C609.8,20.8,609.1,20.6,608.7,20.1 M611.3,16.3c0.9,0,1.5,0.2,1.9,0.7c0.4,0.4,0.6,1,0.6,1.6c0,0.3,0,0.6-0.1,0.8
			c-0.1,0.3-0.2,0.5-0.4,0.7c-0.2,0.2-0.5,0.4-0.8,0.5c-0.3,0.1-0.7,0.2-1.2,0.2V16.3z M611.3,22.1v-0.7c1.1,0,1.9-0.3,2.4-0.9
			c0.6-0.6,0.8-1.2,0.8-2c0-0.8-0.3-1.5-0.8-2c-0.6-0.6-1.4-0.8-2.4-0.9V15h-0.7v0.6c-1.1,0-1.9,0.3-2.4,0.9c-0.6,0.6-0.8,1.2-0.8,2
			c0,0.8,0.3,1.5,0.8,2c0.6,0.6,1.4,0.8,2.4,0.9v0.7H611.3z M683.7-4.9h-1.9c0.1,0.2,0.2,0.4,0.3,0.6h1.7c0.7,0,1.2-0.2,1.5-0.5
			c0.4-0.3,0.6-0.8,0.6-1.4c0-0.6-0.2-1-0.6-1.4c-0.4-0.3-0.9-0.5-1.5-0.5H681v1.5c0.2,0.5,0.5,0.9,0.7,1.4v-2.3h2
			c0.5,0,0.8,0.1,1.1,0.3c0.3,0.2,0.4,0.5,0.4,0.9c0,0.4-0.1,0.7-0.4,0.9C684.6-5,684.2-4.9,683.7-4.9 M704.2-1.2h0.7v-6.1h2.3V-8
			h-5.2v0.6h2.3V-1.2z M706.6,2.3c-0.2,0.2-0.4,0.3-0.7,0.3c-0.3,0-0.5-0.1-0.7-0.3c-0.2-0.2-0.3-0.4-0.3-0.7h-0.6
			c0,0.4,0.2,0.8,0.4,1.1c0.3,0.3,0.7,0.4,1.1,0.4c0.4,0,0.8-0.1,1.1-0.4c0.3-0.3,0.4-0.6,0.5-1.1h-0.6
			C706.8,1.9,706.7,2.1,706.6,2.3 M705.9-20c0.4,0,0.8-0.1,1.1-0.4c0.3-0.3,0.4-0.6,0.5-1.1h-0.6c0,0.3-0.1,0.5-0.3,0.7
			c-0.2,0.2-0.4,0.3-0.7,0.3c-0.3,0-0.5-0.1-0.7-0.3c-0.2-0.2-0.3-0.4-0.3-0.7h-0.6c0,0.4,0.2,0.8,0.4,1.1
			C705-20.2,705.4-20,705.9-20 M690.5-16.3l3.5,3.4h1l-3.7-3.7l3.2-3.1h-0.9l-3,2.9v-2.9h-0.7v6.8h0.7V-16.3z M693.5,3.6l-3,2.9V3.6
			h-0.7v6.8h0.7V6.9l3.5,3.4h1l-3.7-3.7l3.2-3.1H693.5z M700.7-18.4v5.6h0.7v-6.8h-0.6l-4.1,5.6v-5.6H696v6.8h0.6L700.7-18.4z
			 M706.6,25.5c-0.2,0.2-0.4,0.3-0.7,0.3c-0.3,0-0.5-0.1-0.7-0.3c-0.2-0.2-0.3-0.4-0.3-0.7h-0.6c0,0.4,0.2,0.8,0.4,1.1
			c0.3,0.3,0.7,0.4,1.1,0.4c0.4,0,0.8-0.1,1.1-0.4c0.3-0.3,0.4-0.6,0.5-1.1h-0.6C706.8,25.1,706.7,25.3,706.6,25.5 M704.2,21.9h0.7
			v-6.1h2.3v-0.6h-5.2v0.6h2.3V21.9z M633.5-19.6h-0.7v4c0.2-0.2,0.5-0.4,0.7-0.6V-19.6z M683.5-13.2c0.3-0.3,0.5-0.7,0.6-1.3
			c0.1-0.6,0.2-1.6,0.3-2.9l0-1.5h2.7v6.1h0.7v-6.8h-4.1l0,1.8c0,0.5,0,0.9,0,1.2c0,0.3,0,0.7-0.1,1c0,0.3-0.1,0.6-0.2,0.9
			c-0.1,0.4-0.2,0.7-0.4,0.9c-0.2,0.2-0.4,0.3-0.7,0.3c-0.1,0-0.2,0-0.3,0v0.7c0,0,0.1,0,0.3,0C682.9-12.8,683.3-13,683.5-13.2
			 M687.3-8v6.8h0.6l4.1-5.6v5.6h0.7V-8H692l-4.1,5.6V-8H687.3z M681.6-13.5h-4v-2.7h3.1v-0.6h-3.1v-2.2h3.8v-0.6h-4.5v6.8h4.6
			V-13.5z M669-19.6v0.3c0.6,0.3,1.1,0.7,1.7,1.1l-1-1.4H669z M674.4-18.5v3.3c0.2,0.2,0.5,0.4,0.7,0.7v-5h-0.7l-2,2.7
			c0.2,0.1,0.3,0.3,0.5,0.4L674.4-18.5z M630.7-13.5h-0.7v-6.1h-0.7v6.8h0.9C630.3-13,630.5-13.3,630.7-13.5 M685.3,18.4
			c0.4-0.3,0.6-0.8,0.6-1.4c0-0.6-0.2-1-0.6-1.4c-0.3-0.3-0.8-0.5-1.3-0.5c0,0.2-0.1,0.4-0.1,0.6c0.4,0,0.7,0.1,0.9,0.3
			c0.3,0.2,0.4,0.5,0.4,0.9c0,0.4-0.1,0.7-0.4,0.9c-0.3,0.2-0.6,0.3-1.1,0.3h-0.5c-0.1,0.2-0.1,0.4-0.2,0.6h0.7
			C684.4,18.9,684.9,18.8,685.3,18.4 M637-19.6h-0.7v1.3c0.2-0.2,0.5-0.3,0.7-0.5V-19.6z M678.8,27.4h2.6v-0.6h-2.2
			C679.1,27,678.9,27.2,678.8,27.4 M615.1-7.3h2.3v6.1h0.7v-6.1h2.3V-8h-5.2V-7.3z M681.6,32.9h-4v-2.7h3.1v-0.6h-3.1V29
			c-0.2,0.3-0.5,0.6-0.7,0.8v3.7h4.6V32.9z M632.8,32.8L632.8,32.8l-2.8,0.1v-3c-0.2-0.3-0.5-0.5-0.7-0.8v4.4h4.3
			C633.3,33.3,633,33,632.8,32.8 M621.5,26.3c0.4,0,0.8-0.1,1.1-0.4c0.3-0.3,0.4-0.6,0.5-1.1h-0.6c0,0.3-0.1,0.5-0.3,0.7
			c-0.2,0.2-0.4,0.3-0.7,0.3c-0.3,0-0.5-0.1-0.7-0.3c-0.2-0.2-0.3-0.4-0.3-0.7h-0.6c0,0.4,0.2,0.8,0.4,1.1
			C620.7,26.2,621,26.3,621.5,26.3"/>
		<path class="st17" d="M685.7-14c4.3,6.4,2,22.1-0.5,35.9c-8.8,17.6-28.4,27.2-30.4,26.8c-0.5,0-0.9,0-1.4,0c0,0-2.7-0.5-2.7-0.5
			l-5.2,24.1h0h13.3l2.4-15c0,0,0,0,0,0c21.6,0,39-18,39-40.1C700.2,4.6,694.5-6.6,685.7-14"/>
		<path class="st18" d="M653.4,40.8c-17.3,0-31.3-14.4-31.3-32.2c0-17.8,14-32.2,31.3-32.2c17.3,0,31.3,14.4,31.3,32.2
			C684.7,26.4,670.7,40.8,653.4,40.8 M653.4-31.5c-21.6,0-39,18-39,40.2c0,17.5,10.9,32.4,26.1,37.9l-4.1,25.9h13.3l3.7-23.6
			c0,0,0,0,0,0c21.6,0,39-18,39-40.1S675-31.5,653.4-31.5"/>
	</g>
	<path class="st2" d="M611.2-39.3h102V65.6h-102V-39.3z M604.6,72.4h115.3V-46.1H604.6V72.4z"/>
	<g>
		<defs>
			<rect id="SVGID_13_" x="604.6" y="-46.1" width="115.3" height="118.5"/>
		</defs>
		<clipPath id="SVGID_14_">
			<use xlink:href="#SVGID_13_"  style="overflow:visible;"/>
		</clipPath>
		<path class="st19" d="M686.4,10.1c0-0.5,0-1,0-1.5c0-1.6-0.1-3.2-0.3-4.7h-13.6v-6.6h11.9c-0.8-2.2-1.9-4.4-3.1-6.3h-15.6v34.4
			h16.3c1.2-2,2.1-4.1,2.9-6.3h-12.2v-8.8H686.4z M642.9,5.2L633.3-9H629c-1,1.5-1.8,3.2-2.6,4.9v25.6c0.6,1.3,1.2,2.6,1.9,3.8h4.9
			V1.8l7.8,11h3.8l7.7-11v23.5h6.8V-9h-6.8L642.9,5.2z"/>
		<path class="st19" d="M615.1,39h2.3v6.1h0.7V39h2.3v-0.6h-5.2V39z M634.2,41.8h3.1v-0.6h-3.1V39h3.8v-0.6h-4.5v6.8h4.6v-0.6h-4
			V41.8z M619.5,32.3v-5.6h-0.7v6.8h0.6l4.1-5.6v5.6h0.7v-6.8h-0.6L619.5,32.3z M628.6,41.6l-2.4-3.3h-0.7v6.8h0.7v-5.7l2.2,3h0.4
			l2.1-3v5.7h0.7v-6.8H631L628.6,41.6z M653.2,43.9v-3.1c-0.2,0-0.5,0-0.7,0v4.3h0.6l3.3-4.5c-0.3,0-0.6,0-0.8,0.1L653.2,43.9z
			 M643.8,45.1h0.7v-5.6c-0.2-0.1-0.5-0.1-0.7-0.2V45.1z M640.4,38.3l0,1.8c0,0.5,0,0.9,0,1.2c0,0.3,0,0.7-0.1,1
			c0,0.3-0.1,0.6-0.2,0.9c-0.1,0.4-0.2,0.7-0.4,0.9c-0.2,0.2-0.4,0.3-0.7,0.3c-0.1,0-0.2,0-0.3,0v0.7c0,0,0.1,0,0.3,0
			c0.5,0,0.9-0.2,1.1-0.4c0.3-0.3,0.5-0.7,0.6-1.3c0.2-0.6,0.2-1.6,0.3-2.9l0-1.5h2c-0.6-0.2-1.1-0.4-1.7-0.6H640.4z M648.8,40.4
			c-0.3,0-0.5-0.1-0.8-0.1l-1,1v-1.1c-0.2-0.1-0.5-0.1-0.7-0.2v5.1h0.7v-3.4l3.5,3.4h1l-3.7-3.7L648.8,40.4z M626.2-8h-0.7v2
			c0.3-0.6,0.6-1.1,0.9-1.7L626.2-8z M616.3-18.4v5.6h0.7v-6.8h-0.6l-4.1,5.6v-5.6h-0.7v6.8h0.6L616.3-18.4z M621.5-20
			c0.4,0,0.8-0.1,1.1-0.4c0.3-0.3,0.4-0.6,0.5-1.1h-0.6c0,0.3-0.1,0.5-0.3,0.7c-0.2,0.2-0.4,0.3-0.7,0.3c-0.3,0-0.5-0.1-0.7-0.3
			c-0.2-0.2-0.3-0.4-0.3-0.7h-0.6c0,0.4,0.2,0.8,0.4,1.1C620.7-20.2,621-20,621.5-20 M610.6,33.5l-3.7-3.7l3.2-3.1h-0.9l-3,2.9v-2.9
			h-0.7v6.8h0.7v-3.4l3.5,3.4H610.6z M613.8,42.5c-0.1,0.3-0.2,0.5-0.4,0.7c-0.2,0.2-0.5,0.4-0.8,0.5c-0.3,0.1-0.7,0.2-1.2,0.2v-4.5
			c0.9,0,1.5,0.2,1.9,0.7c0.4,0.4,0.6,1,0.6,1.6C613.9,42,613.9,42.3,613.8,42.5 M610.6,44c-0.9,0-1.5-0.2-1.9-0.7
			c-0.4-0.4-0.6-1-0.6-1.6c0-0.6,0.2-1.2,0.6-1.6c0.4-0.4,1.1-0.7,1.9-0.7V44z M611.3,38.8v-0.6h-0.7v0.6c-1.1,0-1.9,0.3-2.4,0.9
			c-0.6,0.6-0.8,1.2-0.8,2c0,0.8,0.3,1.5,0.8,2c0.6,0.6,1.4,0.8,2.4,0.9v0.7h0.7v-0.7c1.1,0,1.9-0.3,2.4-0.9c0.6-0.6,0.8-1.2,0.8-2
			c0-0.8-0.3-1.5-0.8-2C613.2,39.1,612.4,38.8,611.3,38.8 M606.1,6.9l3.5,3.4h1l-3.7-3.7l3.2-3.1h-0.9l-3,2.9V3.6h-0.7v6.8h0.7V6.9z
			 M606.1-16.3l3.5,3.4h1l-3.7-3.7l3.2-3.1h-0.9l-3,2.9v-2.9h-0.7v6.8h0.7V-16.3z M610.6-6.9v4.5c-0.9,0-1.5-0.2-1.9-0.7
			c-0.4-0.4-0.6-1-0.6-1.6c0-0.6,0.2-1.2,0.6-1.6C609.1-6.7,609.8-6.9,610.6-6.9 M611.3-6.9c0.9,0,1.5,0.2,1.9,0.7
			c0.4,0.4,0.6,1,0.6,1.6c0,0.3,0,0.6-0.1,0.8c-0.1,0.3-0.2,0.5-0.4,0.7c-0.2,0.2-0.5,0.4-0.8,0.5c-0.3,0.1-0.7,0.2-1.2,0.2V-6.9z
			 M607.4-4.6c0,0.8,0.3,1.5,0.8,2c0.6,0.6,1.4,0.8,2.4,0.9V-1h0.7v-0.7c1.1,0,1.9-0.3,2.4-0.9c0.6-0.6,0.8-1.2,0.8-2
			c0-0.8-0.3-1.5-0.8-2c-0.6-0.6-1.4-0.8-2.4-0.9v-0.6h-0.7v0.6c-1.1,0-1.9,0.3-2.4,0.9C607.7-6.1,607.4-5.4,607.4-4.6 M619.5-14
			v-5.6h-0.7v6.8h0.6l4.1-5.6v5.6h0.7v-6.8h-0.6L619.5-14z M700.6-3.8c-0.1,0.3-0.2,0.5-0.4,0.7c-0.2,0.2-0.5,0.4-0.8,0.5
			c-0.3,0.1-0.7,0.2-1.2,0.2v-4.5c0.9,0,1.5,0.2,1.9,0.7c0.4,0.4,0.6,1,0.6,1.6C700.7-4.3,700.7-4.1,700.6-3.8 M697.5-2.4
			c-0.9,0-1.5-0.2-1.9-0.7c-0.4-0.4-0.6-1-0.6-1.6c0-0.6,0.2-1.2,0.6-1.6c0.4-0.4,1.1-0.7,1.9-0.7V-2.4z M698.2-7.5v-0.6h-0.7v0.6
			c-1.1,0-1.9,0.3-2.4,0.9c-0.6,0.6-0.8,1.2-0.8,2c0,0.8,0.3,1.5,0.8,2c0.6,0.6,1.4,0.8,2.4,0.9V-1h0.7v-0.7c1.1,0,1.9-0.3,2.4-0.9
			c0.6-0.6,0.8-1.2,0.8-2c0-0.8-0.3-1.5-0.8-2C700.1-7.2,699.3-7.5,698.2-7.5 M696,3.6v6.8h0.6l4.1-5.6v5.6h0.7V3.6h-0.6l-4.1,5.6
			V3.6H696z M701.9,39h2.3v6.1h0.7V39h2.3v-0.6h-5.2V39z M703.9,32.3v-5.6h-0.7v6.8h0.6l4.1-5.6v5.6h0.7v-6.8H708L703.9,32.3z
			 M708-19.6l-4.1,5.6v-5.6h-0.7v6.8h0.6l4.1-5.6v5.6h0.7v-6.8H708z M703.9,9.2V3.6h-0.7v6.8h0.6l4.1-5.6v5.6h0.7V3.6H708L703.9,9.2
			z M700.6,19.4c-0.1,0.3-0.2,0.5-0.4,0.7c-0.2,0.2-0.5,0.4-0.8,0.5c-0.3,0.1-0.7,0.2-1.2,0.2v-4.5c0.9,0,1.5,0.2,1.9,0.7
			c0.4,0.4,0.6,1,0.6,1.6C700.7,18.8,700.7,19.1,700.6,19.4 M697.5,20.8c-0.9,0-1.5-0.2-1.9-0.7c-0.4-0.4-0.6-1-0.6-1.6
			c0-0.6,0.2-1.2,0.6-1.6c0.4-0.4,1.1-0.7,1.9-0.7V20.8z M698.2,15.6V15h-0.7v0.6c-1.1,0-1.9,0.3-2.4,0.9c-0.6,0.6-0.8,1.2-0.8,2
			c0,0.8,0.3,1.5,0.8,2c0.6,0.6,1.4,0.8,2.4,0.9v0.7h0.7v-0.7c1.1,0,1.9-0.3,2.4-0.9c0.6-0.6,0.8-1.2,0.8-2c0-0.8-0.3-1.5-0.8-2
			C700.1,15.9,699.3,15.6,698.2,15.6 M687.9,33.5v-6.8h-4.1l0,1.8c0,0.5,0,0.9,0,1.2c0,0.3,0,0.7-0.1,1c0,0.3-0.1,0.6-0.2,0.9
			c-0.1,0.4-0.2,0.7-0.4,0.9c-0.2,0.2-0.4,0.3-0.7,0.3c-0.1,0-0.2,0-0.3,0v0.7c0,0,0.1,0,0.3,0c0.5,0,0.9-0.2,1.1-0.4
			c0.3-0.3,0.5-0.7,0.6-1.3c0.1-0.6,0.2-1.6,0.3-2.9l0-1.5h2.7v6.1H687.9z M678.5,44.5h-2.8v-6.1H675v6.1h-2.8v-6.1h-0.7v6.8h7.7
			v-6.8h-0.7V44.5z M660.5,43.9V40c-0.2,0.1-0.5,0.1-0.7,0.2v5h0.6l4.1-5.6v5.6h0.7v-6.7c-0.3,0.1-0.6,0.3-1,0.4L660.5,43.9z
			 M684.8,41.1c-0.3,0.2-0.6,0.3-1.1,0.3h-2V39h2c0.5,0,0.8,0.1,1.1,0.3c0.3,0.2,0.4,0.5,0.4,0.9C685.2,40.6,685.1,40.9,684.8,41.1
			 M683.8,38.3H681v6.8h0.7v-3h2.1c0.7,0,1.2-0.2,1.5-0.5c0.4-0.3,0.6-0.8,0.6-1.4c0-0.6-0.2-1-0.6-1.4
			C684.9,38.5,684.4,38.3,683.8,38.3 M696,26.8v6.8h0.6l4.1-5.6v5.6h0.7v-6.8h-0.6l-4.1,5.6v-5.6H696z M700.6,42.5
			c-0.1,0.3-0.2,0.5-0.4,0.7c-0.2,0.2-0.5,0.4-0.8,0.5c-0.3,0.1-0.7,0.2-1.2,0.2v-4.5c0.9,0,1.5,0.2,1.9,0.7c0.4,0.4,0.6,1,0.6,1.6
			C700.7,42,700.7,42.3,700.6,42.5 M697.5,44c-0.9,0-1.5-0.2-1.9-0.7c-0.4-0.4-0.6-1-0.6-1.6c0-0.6,0.2-1.2,0.6-1.6
			c0.4-0.4,1.1-0.7,1.9-0.7V44z M698.2,38.8v-0.6h-0.7v0.6c-1.1,0-1.9,0.3-2.4,0.9c-0.6,0.6-0.8,1.2-0.8,2c0,0.8,0.3,1.5,0.8,2
			c0.6,0.6,1.4,0.8,2.4,0.9v0.7h0.7v-0.7c1.1,0,1.9-0.3,2.4-0.9c0.6-0.6,0.8-1.2,0.8-2c0-0.8-0.3-1.5-0.8-2
			C700.1,39.1,699.3,38.8,698.2,38.8 M687.9,43.9v-5.6h-0.7v6.8h0.6l4.1-5.6v5.6h0.7v-6.8H692L687.9,43.9z M657.2,45.1h0.7v-4.6
			c-0.2,0-0.5,0.1-0.7,0.1V45.1z M691.2,29.8l3.2-3.1h-0.9l-3,2.9v-2.9h-0.7v6.8h0.7v-3.4l3.5,3.4h1L691.2,29.8z M674.4,33.5h0.7
			v-1.7c-0.2,0.2-0.5,0.5-0.7,0.7V33.5z M692.6,21.9v-6.8H692l-4.1,5.6v-5.6h-0.7v6.8h0.6l4.1-5.6v5.6H692.6z M617,33.5v-6.8h-0.6
			l-4.1,5.6v-5.6h-0.7v6.8h0.6l4.1-5.6v5.6H617z M687.9,10.3V3.6h-3.6c0.1,0.4,0.1,0.8,0.2,1.3l0-0.6h2.7v6.1H687.9z M618,21.9v-6.1
			h2.3v-0.6h-5.2v0.6h2.3v6.1H618z M618.8,3.6v6.8h0.6l2.8-3.8c0-0.4,0-0.8,0.1-1.2l-2.8,3.8V3.6H618.8z M611.6,3.6v6.8h0.6l4.1-5.6
			v5.6h0.7V3.6h-0.6l-4.1,5.6V3.6H611.6z M622.2,2.3c-0.2,0.2-0.4,0.3-0.7,0.3c-0.3,0-0.5-0.1-0.7-0.3c-0.2-0.2-0.3-0.4-0.3-0.7
			h-0.6c0,0.4,0.2,0.8,0.4,1.1c0.3,0.3,0.7,0.4,1.1,0.4c0.4,0,0.8-0.1,1.1-0.4c0,0,0,0,0.1-0.1c0.1-0.3,0.1-0.7,0.2-1h-0.4
			C622.5,1.9,622.4,2.1,622.2,2.3 M608.7,20.1c-0.4-0.4-0.6-1-0.6-1.6c0-0.6,0.2-1.2,0.6-1.6c0.4-0.4,1.1-0.7,1.9-0.7v4.5
			C609.8,20.8,609.1,20.6,608.7,20.1 M611.3,16.3c0.9,0,1.5,0.2,1.9,0.7c0.4,0.4,0.6,1,0.6,1.6c0,0.3,0,0.6-0.1,0.8
			c-0.1,0.3-0.2,0.5-0.4,0.7c-0.2,0.2-0.5,0.4-0.8,0.5c-0.3,0.1-0.7,0.2-1.2,0.2V16.3z M611.3,22.1v-0.7c1.1,0,1.9-0.3,2.4-0.9
			c0.6-0.6,0.8-1.2,0.8-2c0-0.8-0.3-1.5-0.8-2c-0.6-0.6-1.4-0.8-2.4-0.9V15h-0.7v0.6c-1.1,0-1.9,0.3-2.4,0.9c-0.6,0.6-0.8,1.2-0.8,2
			c0,0.8,0.3,1.5,0.8,2c0.6,0.6,1.4,0.8,2.4,0.9v0.7H611.3z M683.7-4.9h-1.9c0.1,0.2,0.2,0.4,0.3,0.6h1.7c0.7,0,1.2-0.2,1.5-0.5
			c0.4-0.3,0.6-0.8,0.6-1.4c0-0.6-0.2-1-0.6-1.4c-0.4-0.3-0.9-0.5-1.5-0.5H681v1.5c0.2,0.5,0.5,0.9,0.7,1.4v-2.3h2
			c0.5,0,0.8,0.1,1.1,0.3c0.3,0.2,0.4,0.5,0.4,0.9c0,0.4-0.1,0.7-0.4,0.9C684.6-5,684.2-4.9,683.7-4.9 M704.2-1.2h0.7v-6.1h2.3V-8
			h-5.2v0.6h2.3V-1.2z M706.6,2.3c-0.2,0.2-0.4,0.3-0.7,0.3c-0.3,0-0.5-0.1-0.7-0.3c-0.2-0.2-0.3-0.4-0.3-0.7h-0.6
			c0,0.4,0.2,0.8,0.4,1.1c0.3,0.3,0.7,0.4,1.1,0.4c0.4,0,0.8-0.1,1.1-0.4c0.3-0.3,0.4-0.6,0.5-1.1h-0.6
			C706.8,1.9,706.7,2.1,706.6,2.3 M705.9-20c0.4,0,0.8-0.1,1.1-0.4c0.3-0.3,0.4-0.6,0.5-1.1h-0.6c0,0.3-0.1,0.5-0.3,0.7
			c-0.2,0.2-0.4,0.3-0.7,0.3c-0.3,0-0.5-0.1-0.7-0.3c-0.2-0.2-0.3-0.4-0.3-0.7h-0.6c0,0.4,0.2,0.8,0.4,1.1
			C705-20.2,705.4-20,705.9-20 M690.5-16.3l3.5,3.4h1l-3.7-3.7l3.2-3.1h-0.9l-3,2.9v-2.9h-0.7v6.8h0.7V-16.3z M693.5,3.6l-3,2.9V3.6
			h-0.7v6.8h0.7V6.9l3.5,3.4h1l-3.7-3.7l3.2-3.1H693.5z M700.7-18.4v5.6h0.7v-6.8h-0.6l-4.1,5.6v-5.6H696v6.8h0.6L700.7-18.4z
			 M706.6,25.5c-0.2,0.2-0.4,0.3-0.7,0.3c-0.3,0-0.5-0.1-0.7-0.3c-0.2-0.2-0.3-0.4-0.3-0.7h-0.6c0,0.4,0.2,0.8,0.4,1.1
			c0.3,0.3,0.7,0.4,1.1,0.4c0.4,0,0.8-0.1,1.1-0.4c0.3-0.3,0.4-0.6,0.5-1.1h-0.6C706.8,25.1,706.7,25.3,706.6,25.5 M704.2,21.9h0.7
			v-6.1h2.3v-0.6h-5.2v0.6h2.3V21.9z M633.5-19.6h-0.7v4c0.2-0.2,0.5-0.4,0.7-0.6V-19.6z M683.5-13.2c0.3-0.3,0.5-0.7,0.6-1.3
			c0.1-0.6,0.2-1.6,0.3-2.9l0-1.5h2.7v6.1h0.7v-6.8h-4.1l0,1.8c0,0.5,0,0.9,0,1.2c0,0.3,0,0.7-0.1,1c0,0.3-0.1,0.6-0.2,0.9
			c-0.1,0.4-0.2,0.7-0.4,0.9c-0.2,0.2-0.4,0.3-0.7,0.3c-0.1,0-0.2,0-0.3,0v0.7c0,0,0.1,0,0.3,0C682.9-12.8,683.3-13,683.5-13.2
			 M687.3-8v6.8h0.6l4.1-5.6v5.6h0.7V-8H692l-4.1,5.6V-8H687.3z M681.6-13.5h-4v-2.7h3.1v-0.6h-3.1v-2.2h3.8v-0.6h-4.5v6.8h4.6
			V-13.5z M669-19.6v0.3c0.6,0.3,1.1,0.7,1.7,1.1l-1-1.4H669z M674.4-18.5v3.3c0.2,0.2,0.5,0.4,0.7,0.7v-5h-0.7l-2,2.7
			c0.2,0.1,0.3,0.3,0.5,0.4L674.4-18.5z M630.7-13.5h-0.7v-6.1h-0.7v6.8h0.9C630.3-13,630.5-13.3,630.7-13.5 M685.3,18.4
			c0.4-0.3,0.6-0.8,0.6-1.4c0-0.6-0.2-1-0.6-1.4c-0.3-0.3-0.8-0.5-1.3-0.5c0,0.2-0.1,0.4-0.1,0.6c0.4,0,0.7,0.1,0.9,0.3
			c0.3,0.2,0.4,0.5,0.4,0.9c0,0.4-0.1,0.7-0.4,0.9c-0.3,0.2-0.6,0.3-1.1,0.3h-0.5c-0.1,0.2-0.1,0.4-0.2,0.6h0.7
			C684.4,18.9,684.9,18.8,685.3,18.4 M637-19.6h-0.7v1.3c0.2-0.2,0.5-0.3,0.7-0.5V-19.6z M678.8,27.4h2.6v-0.6h-2.2
			C679.1,27,678.9,27.2,678.8,27.4 M615.1-7.3h2.3v6.1h0.7v-6.1h2.3V-8h-5.2V-7.3z M681.6,32.9h-4v-2.7h3.1v-0.6h-3.1V29
			c-0.2,0.3-0.5,0.6-0.7,0.8v3.7h4.6V32.9z M632.8,32.8L632.8,32.8l-2.8,0.1v-3c-0.2-0.3-0.5-0.5-0.7-0.8v4.4h4.3
			C633.3,33.3,633,33,632.8,32.8 M621.5,26.3c0.4,0,0.8-0.1,1.1-0.4c0.3-0.3,0.4-0.6,0.5-1.1h-0.6c0,0.3-0.1,0.5-0.3,0.7
			c-0.2,0.2-0.4,0.3-0.7,0.3c-0.3,0-0.5-0.1-0.7-0.3c-0.2-0.2-0.3-0.4-0.3-0.7h-0.6c0,0.4,0.2,0.8,0.4,1.1
			C620.7,26.2,621,26.3,621.5,26.3"/>
		<path class="st19" d="M685.7-14c4.3,6.4,2,22.1-0.5,35.9c-8.8,17.6-28.4,27.2-30.4,26.8c-0.5,0-0.9,0-1.4,0c0,0-2.7-0.5-2.7-0.5
			l-5.2,24.1h0h13.3l2.4-15c0,0,0,0,0,0c21.6,0,39-18,39-40.1C700.2,4.6,694.5-6.6,685.7-14"/>
		<path class="st20" d="M653.4,40.8c-17.3,0-31.3-14.4-31.3-32.2c0-17.8,14-32.2,31.3-32.2c17.3,0,31.3,14.4,31.3,32.2
			C684.7,26.4,670.7,40.8,653.4,40.8 M653.4-31.5c-21.6,0-39,18-39,40.2c0,17.5,10.9,32.4,26.1,37.9l-4.1,25.9h13.3l3.7-23.6
			c0,0,0,0,0,0c21.6,0,39-18,39-40.1S675-31.5,653.4-31.5"/>
	</g>
</g>
<g>
	<g>
		<defs>
			<rect id="SVGID_15_" x="739.8" y="55.6" width="74.6" height="75.5"/>
		</defs>
		<clipPath id="SVGID_16_">
			<use xlink:href="#SVGID_15_"  style="overflow:visible;"/>
		</clipPath>
		<path class="st21" d="M740,60.8h73.9 M740,66.2h73.9 M740,71.5h73.9 M740,76.9h73.9 M740,82.3h73.9 M740,87.6h73.9 M740,93h73.9
			 M740,98.4h73.9 M740,103.7h73.9 M740,109.1h73.9 M740,114.4h73.9 M740,119.8h73.9 M740,125.2h73.9 M808.9,56v74.8 M803.6,56v74.8
			 M798.3,56v74.8 M793,56v74.8 M787.7,56v74.8 M782.4,56v74.8 M777.1,56v74.8 M771.8,56v74.8 M766.5,56v74.8 M761.2,56v74.8
			 M755.9,56v74.8 M750.6,56v74.8 M745.3,56v74.8 M814.1,130.8h-73.9V56h73.9V130.8z"/>
	</g>
	<polygon class="st2" points="800.6,121.5 753.4,121.5 753.4,63.6 792.8,63.6 800.6,72.4 	"/>
	<polygon class="st22" points="800.6,121.5 753.4,121.5 753.4,63.6 792.8,63.6 800.6,72.4 	"/>
	<rect x="753.4" y="112.9" class="st10" width="47.2" height="8.6"/>
	<rect x="753.4" y="112.9" class="st22" width="47.2" height="8.6"/>
	<polyline class="st22" points="800.9,71.9 792.7,71.9 792.7,63.3 	"/>
	<g>
		<defs>
			<rect id="SVGID_17_" x="739.8" y="55.6" width="74.6" height="75.5"/>
		</defs>
		<clipPath id="SVGID_18_">
			<use xlink:href="#SVGID_17_"  style="overflow:visible;"/>
		</clipPath>
		<path class="st23" d="M791.8,79.9v0.3c0,8.2-6.6,14.8-14.6,14.8h-0.3c-8.1,0-14.6-6.7-14.6-14.8v-0.3"/>
	</g>
	<rect x="760.8" y="77.4" class="st2" width="2.4" height="2.4"/>
	<rect x="760.8" y="77.4" class="st24" width="2.4" height="2.4"/>
	<rect x="790.7" y="77.4" class="st2" width="2.4" height="2.4"/>
	<rect x="790.7" y="77.4" class="st24" width="2.4" height="2.4"/>
	<line class="st25" x1="766.6" y1="95.2" x2="788.1" y2="95.2"/>
	<g>
		<defs>
			<rect id="SVGID_19_" x="739.8" y="55.6" width="74.6" height="75.5"/>
		</defs>
		<clipPath id="SVGID_20_">
			<use xlink:href="#SVGID_19_"  style="overflow:visible;"/>
		</clipPath>
		<path class="st26" d="M778.7,95.2c0,0.8-0.6,1.4-1.4,1.4c-0.8,0-1.4-0.6-1.4-1.4s0.6-1.4,1.4-1.4
			C778.1,93.8,778.7,94.4,778.7,95.2"/>
		<ellipse class="st27" cx="777.4" cy="95.2" rx="1.4" ry="1.4"/>
		<path class="st26" d="M765.2,96.6c-0.8,0-1.4-0.6-1.4-1.3c0-0.8,0.6-1.4,1.3-1.4c0.8,0,1.4,0.6,1.4,1.3
			C766.5,95.9,765.9,96.6,765.2,96.6"/>
		<path class="st27" d="M765.2,96.6c-0.8,0-1.4-0.6-1.4-1.3c0-0.8,0.6-1.4,1.3-1.4c0.8,0,1.4,0.6,1.4,1.3
			C766.5,95.9,765.9,96.6,765.2,96.6z"/>
		<path class="st26" d="M789.7,96.6c-0.8,0-1.4-0.6-1.4-1.3c0-0.8,0.6-1.4,1.3-1.4c0.8,0,1.4,0.6,1.4,1.3
			C791,95.9,790.4,96.6,789.7,96.6"/>
		<path class="st27" d="M789.7,96.6c-0.8,0-1.4-0.6-1.4-1.3c0-0.8,0.6-1.4,1.3-1.4c0.8,0,1.4,0.6,1.4,1.3
			C791,95.9,790.4,96.6,789.7,96.6z"/>
	</g>
	<polygon class="st2" points="775.7,106.4 779.5,106.4 780.6,103.1 777.5,98.2 774.2,103.1 	"/>
	<polygon class="st28" points="775.7,106.4 779.5,106.4 780.6,103.1 777.5,98.2 774.2,103.1 	"/>
	<line class="st28" x1="777.4" y1="104.6" x2="777.4" y2="98.7"/>
	<rect x="774.3" y="106.7" class="st2" width="6.1" height="1.9"/>
	<rect x="774.3" y="106.7" class="st28" width="6.1" height="1.9"/>
	<g>
		<defs>
			<rect id="SVGID_21_" x="739.8" y="55.6" width="74.6" height="75.5"/>
		</defs>
		<clipPath id="SVGID_22_">
			<use xlink:href="#SVGID_21_"  style="overflow:visible;"/>
		</clipPath>
		<path class="st29" d="M756.8,116.7v1.5c0.2,0,0.4-0.1,0.6-0.2c0.1-0.1,0.2-0.3,0.2-0.5c0-0.2-0.1-0.4-0.2-0.5
			C757.3,116.8,757.1,116.7,756.8,116.7 M756.2,118.2v-1.5c-0.2,0-0.4,0.1-0.6,0.2c-0.1,0.1-0.2,0.3-0.2,0.5c0,0.2,0.1,0.4,0.2,0.5
			C755.8,118.1,756,118.2,756.2,118.2 M756.8,119.1h-0.6v-0.3c-0.4,0-0.8-0.1-1-0.4c-0.2-0.2-0.4-0.5-0.4-0.9c0-0.3,0.1-0.6,0.4-0.9
			c0.2-0.2,0.6-0.4,1-0.4v-0.3h0.6v0.3c0.4,0,0.8,0.2,1,0.4c0.2,0.2,0.4,0.5,0.4,0.9c0,0.3-0.1,0.6-0.4,0.9c-0.2,0.2-0.6,0.4-1,0.4
			V119.1z"/>
	</g>
	<polygon class="st2" points="759.3,119 758.8,119 758.8,116 759.4,116 759.4,117.9 760.8,116 761.3,116 761.3,119 760.7,119 
		760.7,117 	"/>
	<g>
		<defs>
			<rect id="SVGID_23_" x="739.8" y="55.6" width="74.6" height="75.5"/>
		</defs>
		<clipPath id="SVGID_24_">
			<use xlink:href="#SVGID_23_"  style="overflow:visible;"/>
		</clipPath>
		<path class="st30" d="M762.5,116.6v0.7h0.6c0.1,0,0.3,0,0.3-0.1c0.1-0.1,0.1-0.2,0.1-0.3c0-0.1,0-0.2-0.1-0.3
			c-0.1-0.1-0.2-0.1-0.3-0.1H762.5z M762.5,119h-0.6V116h1.3c0.3,0,0.6,0.1,0.7,0.2c0.2,0.2,0.3,0.4,0.3,0.6c0,0.3-0.1,0.5-0.3,0.6
			c-0.2,0.2-0.4,0.2-0.7,0.2h-0.7V119z"/>
	</g>
	<polygon class="st2" points="765.3,119 764.7,119 764.7,116 765.3,116 766.1,117.3 767,116 767.5,116 767.5,119 767,119 767,117 
		766.3,117.9 766,117.9 765.3,117 	"/>
	<polygon class="st2" points="770.4,119 768.2,119 768.2,116 770.3,116 770.3,116.6 768.8,116.6 768.8,117.1 770,117.1 770,117.7 
		768.8,117.7 768.8,118.4 770.4,118.4 	"/>
	<polygon class="st2" points="771.4,119 770.8,119 770.8,116 771.4,116 771.4,117.1 772.7,117.1 772.7,116 773.3,116 773.3,119 
		772.7,119 772.7,117.7 771.4,117.7 	"/>
	<polygon class="st2" points="774.6,119 774,119 774,116 774.6,116 774.6,117.1 775.9,117.1 775.9,116 776.5,116 776.5,119 
		775.9,119 775.9,117.7 774.6,117.7 	"/>
	<g>
		<defs>
			<rect id="SVGID_25_" x="739.8" y="55.6" width="74.6" height="75.5"/>
		</defs>
		<clipPath id="SVGID_26_">
			<use xlink:href="#SVGID_25_"  style="overflow:visible;"/>
		</clipPath>
		<path class="st31" d="M780.3,119h-0.6V116h0.6V119z M777.7,117.5v0.9h0.5c0.2,0,0.3,0,0.4-0.1c0.1-0.1,0.1-0.2,0.1-0.3
			c0-0.1,0-0.3-0.1-0.3c-0.1-0.1-0.2-0.1-0.4-0.1H777.7z M778.3,119h-1.1V116h0.6v1h0.5c0.3,0,0.6,0.1,0.8,0.3
			c0.2,0.2,0.3,0.4,0.3,0.7c0,0.3-0.1,0.5-0.3,0.7C778.9,118.9,778.6,119,778.3,119"/>
		<path class="st31" d="M781.5,115.2h0.4c0,0.1,0,0.2,0.1,0.2c0.1,0.1,0.1,0.1,0.2,0.1s0.2,0,0.2-0.1c0.1-0.1,0.1-0.1,0.1-0.2h0.4
			c0,0.2-0.1,0.4-0.2,0.5c-0.1,0.1-0.3,0.2-0.5,0.2s-0.4-0.1-0.5-0.2C781.5,115.5,781.5,115.4,781.5,115.2 M781.5,119H781V116h0.6
			v1.9l1.4-1.9h0.5v2.9h-0.6V117L781.5,119z"/>
		<path class="st31" d="M786.7,119c-0.5,0-0.8-0.1-1.1-0.4c-0.3-0.3-0.4-0.7-0.4-1.1c0-0.4,0.1-0.8,0.4-1.1c0.3-0.3,0.7-0.4,1.1-0.4
			c0.3,0,0.5,0.1,0.8,0.2v0.6c-0.2-0.2-0.5-0.2-0.8-0.2c-0.3,0-0.5,0.1-0.7,0.3c-0.2,0.2-0.3,0.4-0.3,0.7c0,0.3,0.1,0.5,0.3,0.7
			c0.2,0.2,0.4,0.3,0.7,0.3c0.3,0,0.6-0.1,0.8-0.3v0.6C787.3,119,787,119,786.7,119"/>
	</g>
	<polygon class="st2" points="787.8,116.6 787.8,116 790.2,116 790.2,116.6 789.3,116.6 789.3,119 788.7,119 788.7,116.6 	"/>
	<polygon class="st2" points="791.2,119 790.7,119 790.7,116 791.3,116 791.3,117.9 792.7,116 793.2,116 793.2,119 792.6,119 
		792.6,117 	"/>
	<g>
		<defs>
			<rect id="SVGID_27_" x="739.8" y="55.6" width="74.6" height="75.5"/>
		</defs>
		<clipPath id="SVGID_28_">
			<use xlink:href="#SVGID_27_"  style="overflow:visible;"/>
		</clipPath>
		<path class="st32" d="M793.6,118.9v-0.5c0.1,0,0.1,0,0.2,0c0.2,0,0.3-0.1,0.3-0.3c0.1-0.2,0.1-0.6,0.1-1.2l0-0.9h2v2.9h-0.6v-2.4
			h-0.9l0,0.6c0,0.7-0.1,1.2-0.2,1.4c-0.1,0.3-0.4,0.4-0.7,0.4C793.7,119,793.6,119,793.6,118.9"/>
		<path class="st32" d="M797.5,117.5v0.9h0.6c0.2,0,0.3,0,0.4-0.1c0.1-0.1,0.1-0.2,0.1-0.3c0-0.1,0-0.3-0.1-0.3
			c-0.1-0.1-0.2-0.1-0.4-0.1H797.5z M798.1,119h-1.2V116h0.6v1h0.6c0.3,0,0.6,0.1,0.8,0.3c0.2,0.2,0.3,0.4,0.3,0.7
			c0,0.3-0.1,0.5-0.3,0.7C798.7,118.9,798.5,119,798.1,119"/>
	</g>
	<rect x="755.9" y="122.8" class="st2" width="47.8" height="2.5"/>
	<polygon class="st2" points="803.7,124 801.9,124 801.9,71.9 803.7,73.9 	"/>
	<path class="st33" d="M783,72.3l-12.2,12.5 M770.9,72.3L783,84.8"/>
</g>
<g>
	<g>
		<defs>
			
				<rect id="SVGID_29_" x="542.5" y="158.5" transform="matrix(1 -6.753580e-03 6.753580e-03 1 -1.4197 4.0318)" width="107.5" height="107.5"/>
		</defs>
		<clipPath id="SVGID_30_">
			<use xlink:href="#SVGID_29_"  style="overflow:visible;"/>
		</clipPath>
		<path class="st34" d="M595.9,160c-28.9,0.2-52.1,23.7-51.9,52.6c0.2,28.9,23.7,52.1,52.6,51.9s52.1-23.7,51.9-52.6
			C648.3,183,624.8,159.8,595.9,160"/>
		<path class="st35" d="M595.9,160c-28.9,0.2-52.1,23.7-51.9,52.6c0.2,28.9,23.7,52.1,52.6,51.9s52.1-23.7,51.9-52.6
			C648.3,183,624.8,159.8,595.9,160z"/>
		<path class="st36" d="M577.4,260.2c-19.7-7.8-32.5-26.4-32.6-47.6c0-4.7,0.6-9.3,1.8-13.8l64.7-0.4l0.4,61.6L577.4,260.2z"/>
		<path class="st34" d="M612,197.6l-66.1,0.4c-1.3,4.6-2,9.5-2,14.6c0.1,22,13.9,40.8,33.2,48.3l35.2-0.2L612,197.6z M610.5,199.1
			l0.4,60.1l-33.4,0.2c-9.2-3.7-17.1-9.9-22.9-18.1c-5.9-8.4-9.1-18.4-9.2-28.7c0-4.4,0.5-8.8,1.6-13.1L610.5,199.1z"/>
		<path class="st36" d="M564.1,252.5c-12.2-9.8-19.3-24.3-19.4-39.9c-0.1-7.5,1.5-14.8,4.6-21.6l69.8-0.5l0.4,61.6L564.1,252.5z"/>
		<path class="st34" d="M619.9,189.7l-71,0.5c-3.2,6.8-4.9,14.4-4.9,22.4c0.1,16.5,7.9,31.2,19.9,40.7l56.5-0.4L619.9,189.7z
			 M618.4,191.3l0.4,60.1l-54.4,0.4c-11.9-9.6-18.8-23.9-18.9-39.1c0-7.3,1.4-14.3,4.3-20.8L618.4,191.3z"/>
		<path class="st36" d="M556.2,244.6c-7.3-9-11.4-20.4-11.4-32c-0.1-10.6,3.1-20.8,9.1-29.6l73.2-0.5l0.4,61.6L556.2,244.6z"/>
		<path class="st34" d="M627.7,181.7l-74.3,0.5c-6,8.6-9.5,19.1-9.5,30.3c0.1,12.5,4.5,23.9,11.8,32.8l72.4-0.5L627.7,181.7z
			 M626.2,183.3l0.4,60.1l-70.1,0.5c-7.1-8.9-11-19.9-11-31.3c-0.1-10.3,3-20.3,8.7-28.8L626.2,183.3z"/>
		<path class="st36" d="M551.4,236.7l-0.3-49.2c2.5-4.6,5.8-8.8,9.6-12.5l70.8-0.5c1.1,1,2.2,2.1,3.2,3.3l0.4,58.3L551.4,236.7z"/>
		<path class="st34" d="M631.7,173.8l-71.4,0.5c-4,3.8-7.4,8.2-10.1,13.1l0.3,50.1l85.2-0.6l-0.4-59.3
			C634.2,176.2,633,175,631.7,173.8 M631.1,175.3c0.9,0.9,1.9,1.8,2.8,2.8l0.4,57.2l-82.1,0.6l-0.3-48.2c2.4-4.4,5.5-8.4,9.1-12
			L631.1,175.3z"/>
	</g>
	
		<rect x="559" y="166.8" transform="matrix(1 -6.753580e-03 6.753580e-03 1 -1.321 4.0624)" class="st2" width="83.7" height="61.6"/>
	
		<rect x="571.3" y="184.7" transform="matrix(1 -6.753580e-03 6.753580e-03 1 -1.3286 3.9623)" class="st0" width="29.5" height="28"/>
	<g>
		<defs>
			
				<rect id="SVGID_31_" x="542.5" y="158.5" transform="matrix(1 -6.753580e-03 6.753580e-03 1 -1.4197 4.0318)" width="107.5" height="107.5"/>
		</defs>
		<clipPath id="SVGID_32_">
			<use xlink:href="#SVGID_31_"  style="overflow:visible;"/>
		</clipPath>
		<path class="st37" d="M620,195l-0.1-10.4c-4.6,0-8.4,2.9-9.8,7.2c-1.7,5.5,1.3,11.3,6.8,13c5.5,1.7,11.3-1.3,13-6.8L620,195z"/>
		<path class="st38" d="M622.9,193.1l-0.1-10c5.5,0,9.9,4.4,10,9.9c0,1.1-0.1,2-0.5,3.1L622.9,193.1z"/>
	</g>
	
		<rect x="610.2" y="211.5" transform="matrix(1 -6.753580e-03 6.753580e-03 1 -1.4176 4.1713)" class="st10" width="13.4" height="1"/>
	
		<rect x="610.2" y="208.2" transform="matrix(1 -6.753580e-03 6.753580e-03 1 -1.3956 4.1944)" class="st10" width="20.3" height="1"/>
	<g>
		<defs>
			
				<rect id="SVGID_33_" x="542.5" y="158.5" transform="matrix(1 -6.753580e-03 6.753580e-03 1 -1.4197 4.0318)" width="107.5" height="107.5"/>
		</defs>
		<clipPath id="SVGID_34_">
			<use xlink:href="#SVGID_33_"  style="overflow:visible;"/>
		</clipPath>
		<path class="st39" d="M596.9,191.4c0,1.8-1.5,3.3-3.3,3.3c-1.8,0-3.3-1.5-3.3-3.3c0-1.8,1.5-3.3,3.3-3.3
			C595.4,188.1,596.9,189.5,596.9,191.4"/>
	</g>
	<polygon class="st2" points="573,210.4 597.7,210.2 590.6,198.4 587.6,203.4 581.4,192.9 	"/>
	
		<rect x="555.5" y="228.4" transform="matrix(1 -6.753580e-03 6.753580e-03 1 -1.5404 4.0259)" class="st10" width="79.6" height="3.3"/>
	<polygon class="st10" points="555.6,232 555.1,166.5 558.5,166.3 558.9,232 	"/>
	<polygon class="st10" points="547.7,229.8 547.4,195.4 550.7,189 551,236.1 	"/>
	<polygon class="st10" points="626.9,239.3 552.6,239.8 550.6,236.5 626.8,236 	"/>
	<polygon class="st10" points="619.6,247.6 559.5,248 557,244.7 619.5,244.3 	"/>
	<polygon class="st10" points="611.8,255.9 569.5,256.2 564.8,252.9 611.8,252.6 	"/>
	<path class="st2" d="M643.2,165.8l-85.2,0.6l0.1,10.1l0.4,53l85.2-0.6L643.2,165.8z M641.7,167.3l0.4,60.1L560,228l-0.3-51.5
		l-0.1-8.6L641.7,167.3z"/>
</g>
<g>
	<rect x="889.8" y="251.8" class="st2" width="215.8" height="114.3"/>
	<rect x="889.2" y="207.6" class="st2" width="216.5" height="25.5"/>
	<rect x="889.2" y="177.4" class="st2" width="216.5" height="15.2"/>
	<rect x="889.2" y="161.2" class="st2" width="216.5" height="5.4"/>
	<path class="st0" d="M974.9,290.5l-5.6,20.3l11-4.4L974.9,290.5z M957.3,347.4l-23.7,9.5l30.7-89l21.9-8.8l30.9,64.2l-24.7,9.9
		l-5.3-12.1l-24.3,9.8L957.3,347.4z"/>
	<polygon class="st0" points="1084.1,240.5 1084.1,278.8 1074.9,282.5 1074.9,244.2 1053.4,252.9 1053.4,291.2 1044.6,294.7 
		1044.6,256.5 1023,265.1 1023,321.3 1110.5,286 1110.5,229.9 	"/>
	<g>
		<defs>
			<rect id="SVGID_35_" x="889.2" y="161.2" width="221.3" height="204.8"/>
		</defs>
		<clipPath id="SVGID_36_">
			<use xlink:href="#SVGID_35_"  style="overflow:visible;"/>
		</clipPath>
		<path class="st40" d="M938.2,224.8c3.1,2.1,7.1,2.3,11.8,0.3c4.8-1.9,8.7-5.2,11.9-9.9c3.1-4.8,4.7-9.8,4.7-15.1
			c0-5.3-1.6-9-4.7-11.2c-3.1-2.2-7-2.4-11.9-0.5c-4.8,1.9-8.8,5.3-11.8,10c-3.1,4.7-4.7,9.7-4.7,14.9
			C933.5,218.7,935.1,222.5,938.2,224.8 M910,222.9c0-10.9,3.8-21.8,11.3-32.5c7.6-10.8,17.2-18.6,28.7-23.2
			c11.5-4.6,21-4.6,28.6,0.1c7.5,4.7,11.3,12.5,11.3,23.4c0,11-3.8,21.9-11.3,32.6c-7.5,10.7-17.1,18.4-28.6,23
			c-11.5,4.6-21.1,4.6-28.7-0.1C913.8,241.7,910,233.9,910,222.9"/>
		<line class="st41" x1="911" y1="281" x2="1031.1" y2="342.6"/>
	</g>
</g>
<g>
	<polygon class="st10" points="295.5,-11.3 269,-0.9 269,63.8 340.1,63.8 343.5,56.4 343.5,-11.3 	"/>
	<polygon class="st0" points="304.5,-11.3 269,2.6 269,63.8 336.1,63.8 343.5,47.6 343.5,-11.3 	"/>
	<polygon class="st10" points="313.4,-11.3 269,6.1 269,63.8 332,63.8 343.5,38.8 343.5,-11.3 	"/>
	<polygon class="st0" points="322.4,-11.3 269,9.6 269,63.8 291.3,63.8 294,60.5 302.2,63.8 328,63.8 343.5,30 343.5,-11.3 	"/>
	<polygon class="st10" points="331.3,-11.3 269,13.1 269,53.8 273.3,63.8 289.7,63.8 295.5,56.9 313,63.8 323.9,63.8 343.5,21.2 
		343.5,-11.3 	"/>
	<polygon class="st0" points="340.3,-11.3 269,16.6 269,42.1 270.4,42.6 279.4,63.8 288,63.8 297,53.2 320.5,62.5 343.5,12.5 
		343.5,-11.3 	"/>
	<polygon class="st10" points="269,20.1 269,37.8 275.6,40.4 285.5,63.8 286.4,63.8 298.5,49.5 318.7,57.5 343.5,3.7 343.5,-9.1 	
		"/>
	<polygon class="st0" points="269,23.6 269,33.5 280.7,38.2 289.4,58.4 300,45.8 317,52.6 343.5,-5.1 343.5,-5.6 	"/>
	<polygon class="st10" points="269,27.1 269,29.3 285.9,36 292.9,52.3 301.5,42.2 315.2,47.6 336.9,0.5 	"/>
	<polygon class="st10" points="295.4,44.5 326.5,8.9 297.4,35.8 	"/>
	<polygon class="st42" points="295.4,44.5 326.5,8.9 297.4,35.8 	"/>
	<polygon class="st2" points="326.5,8.9 290.7,32.9 277.1,27.1 	"/>
	<polygon class="st42" points="326.5,8.9 290.7,32.9 277.1,27.1 	"/>
	<polygon class="st2" points="326.5,8.9 297.4,35.8 310.9,41.6 	"/>
	<polygon class="st42" points="326.5,8.9 297.4,35.8 310.9,41.6 	"/>
	<polygon class="st0" points="297.4,35.8 326.5,8.9 290.7,33 295.4,44.5 	"/>
	<polygon class="st42" points="297.4,35.8 326.5,8.9 290.7,33 295.4,44.5 	"/>
</g>
<g>
	<rect x="492" y="24.8" class="st2" width="77.8" height="77.8"/>
	<polygon class="st0" points="571.3,24.7 546.7,30 496.7,70.1 573.4,104.1 	"/>
	<rect x="496.7" y="29.8" class="st10" width="50.7" height="40.2"/>
	<rect x="521.5" y="40.4" class="st0" width="20" height="19"/>
	<g>
		<defs>
			<rect id="SVGID_37_" x="492" y="24.7" width="81.4" height="79.4"/>
		</defs>
		<clipPath id="SVGID_38_">
			<use xlink:href="#SVGID_37_"  style="overflow:visible;"/>
		</clipPath>
		<path class="st43" d="M508.5,47.6v-7c3.1,0,5.7,1.9,6.7,4.9c1.2,3.7-0.8,7.7-4.5,8.9c-3.7,1.2-7.7-0.8-8.9-4.5L508.5,47.6z"/>
		<path class="st44" d="M507.2,46.4v-7c-3.9,0-7,3.1-7,7c0,0.8,0.1,1.4,0.3,2.2L507.2,46.4z"/>
	</g>
	<rect x="506.1" y="58.7" class="st10" width="9.1" height="0.7"/>
	<rect x="506.1" y="58.7" class="st45" width="9.1" height="0.7"/>
	<rect x="501.5" y="56.5" class="st10" width="13.7" height="0.7"/>
	<rect x="501.5" y="56.5" class="st45" width="13.7" height="0.7"/>
	<g>
		<defs>
			<rect id="SVGID_39_" x="492" y="24.7" width="81.4" height="79.4"/>
		</defs>
		<clipPath id="SVGID_40_">
			<use xlink:href="#SVGID_39_"  style="overflow:visible;"/>
		</clipPath>
		<path class="st46" d="M524.1,45c0,1.2,1,2.2,2.2,2.2c1.2,0,2.2-1,2.2-2.2c0-1.2-1-2.2-2.2-2.2C525.1,42.8,524.1,43.8,524.1,45"/>
	</g>
	<polygon class="st2" points="540.4,57.8 523.7,57.8 528.4,49.8 530.5,53.1 534.6,46 	"/>
	<g>
		<defs>
			<rect id="SVGID_41_" x="492" y="24.7" width="81.4" height="79.4"/>
		</defs>
		<clipPath id="SVGID_42_">
			<use xlink:href="#SVGID_41_"  style="overflow:visible;"/>
		</clipPath>
		<path class="st47" d="M496,102.5c0.8-8,7.6-14.3,15.8-14.3s15,6.3,15.8,14.3H496z"/>
		<path class="st48" d="M496,102.5c0.8-8,7.6-14.3,15.8-14.3s15,6.3,15.8,14.3H496z"/>
		<path class="st49" d="M514.9,94.4l0.1,0l1.8-0.5c2.2-0.6,4-2.1,5-4.1l0.1-0.1h35.3c3.4,0,6.1-2.7,6.1-6.1V60
			c0-3.4-2.7-6.1-6.1-6.1h-42.4c-3.4,0-6.1,2.7-6.1,6.1v23.5c0,3.4,2.7,6.1,6.1,6.1h2.2c-0.4,1.5-1.3,2.8-2.5,3.8
			c-0.2,0.2-0.3,0.4-0.2,0.6C514.4,94.2,514.6,94.4,514.9,94.4L514.9,94.4z"/>
		<path class="st48" d="M514.9,94.4l0.1,0l1.8-0.5c2.2-0.6,4-2.1,5-4.1l0.1-0.1h35.3c3.4,0,6.1-2.7,6.1-6.1V60
			c0-3.4-2.7-6.1-6.1-6.1h-42.4c-3.4,0-6.1,2.7-6.1,6.1v23.5c0,3.4,2.7,6.1,6.1,6.1h2.2c-0.4,1.5-1.3,2.8-2.5,3.8
			c-0.2,0.2-0.3,0.4-0.2,0.6C514.4,94.2,514.6,94.4,514.9,94.4L514.9,94.4z"/>
	</g>
	<rect x="536.9" y="62.8" class="st10" width="20" height="19"/>
	<rect x="536.9" y="62.8" class="st45" width="20" height="19"/>
	<g>
		<defs>
			<rect id="SVGID_43_" x="492" y="24.7" width="81.4" height="79.4"/>
		</defs>
		<clipPath id="SVGID_44_">
			<use xlink:href="#SVGID_43_"  style="overflow:visible;"/>
		</clipPath>
		<path class="st50" d="M523.8,70v-7c3.1,0,5.7,1.9,6.7,4.9c1.2,3.7-0.8,7.7-4.5,8.9c-3.7,1.2-7.7-0.8-8.9-4.5L523.8,70z"/>
		<path class="st51" d="M523.8,70v-7c3.1,0,5.7,1.9,6.7,4.9c1.2,3.7-0.8,7.7-4.5,8.9c-3.7,1.2-7.7-0.8-8.9-4.5L523.8,70z"/>
		<path class="st51" d="M522,68.6v-7c-3.9,0-7,3.1-7,7c0,0.8,0.1,1.4,0.3,2.2L522,68.6z"/>
	</g>
	<rect x="521.5" y="81.1" class="st10" width="9.1" height="0.7"/>
	<rect x="521.5" y="81.1" class="st45" width="9.1" height="0.7"/>
	<rect x="516.8" y="78.9" class="st10" width="13.7" height="0.7"/>
	<rect x="516.8" y="78.9" class="st45" width="13.7" height="0.7"/>
	<g>
		<defs>
			<rect id="SVGID_45_" x="492" y="24.7" width="81.4" height="79.4"/>
		</defs>
		<clipPath id="SVGID_46_">
			<use xlink:href="#SVGID_45_"  style="overflow:visible;"/>
		</clipPath>
		<path class="st52" d="M539.5,67.4c0,1.2,1,2.2,2.2,2.2c1.2,0,2.2-1,2.2-2.2s-1-2.2-2.2-2.2C540.5,65.2,539.5,66.2,539.5,67.4"/>
		<circle class="st53" cx="541.7" cy="67.4" r="2.2"/>
	</g>
	<polygon class="st2" points="555.8,80.2 539,80.2 543.7,72.2 545.8,75.5 549.9,68.4 	"/>
	<polygon class="st45" points="555.8,80.2 539,80.2 543.7,72.2 545.8,75.5 549.9,68.4 	"/>
</g>
<g>
	<rect x="689.6" y="174.5" class="st10" width="146.6" height="147.1"/>
	<g>
		<defs>
			<rect id="SVGID_47_" x="689.6" y="174.5" width="146.6" height="147.1"/>
		</defs>
		<clipPath id="SVGID_48_">
			<use xlink:href="#SVGID_47_"  style="overflow:visible;"/>
		</clipPath>
		<path class="st54" d="M809.8,260.4l2.4,2.4l3.5-13.1l-13.1,3.5l2.4,2.4l-51.6,51.6c-2.5,2.5-3.9,5.8-3.8,9.4c0,3.5,1.5,6.8,4,9.3
			l9,8.7l4.7-4.9l-9-8.7c-1.2-1.2-1.9-2.8-1.9-4.5c0-1.7,0.6-3.3,1.8-4.5L809.8,260.4z"/>
		<path class="st54" d="M773.9,340l-4.8-4.8l8.2-8.2c4-4,4-10.5,0-14.4l-2.6-2.6c-6.6-6.6-6.6-17.4,0-24.1l4.8,4.8
			c-4,4-4,10.5,0,14.4l2.6,2.6c6.6,6.6,6.6,17.4,0,24.1L773.9,340z"/>
		<path class="st55" d="M781.2,247c-2.4-2.5-2.4-6.4,0-8.9l39.1-39.1l2.4,2.4l3.5-13.1l-13.1,3.5l2.4,2.4l-39.1,39.1
			c-5.1,5.1-5.1,13.3-0.1,18.4l66.1,67.2l4.9-4.8L781.2,247z"/>
		<path class="st56" d="M781.2,247c-2.4-2.5-2.4-6.4,0-8.9l39.1-39.1l2.4,2.4l3.5-13.1l-13.1,3.5l2.4,2.4l-39.1,39.1
			c-5.1,5.1-5.1,13.3-0.1,18.4l66.1,67.2l4.9-4.8L781.2,247z"/>
	</g>
	<polygon class="st2" points="792.4,306.3 794.8,303.9 812.5,321.6 822.1,321.6 799.6,299.1 802,296.7 788.9,293.2 	"/>
	<polygon class="st2" points="792.9,196.9 795.3,194.5 836.3,235.4 836.3,225.8 800.2,189.7 802.5,187.3 789.4,183.8 	"/>
	<polygon class="st57" points="745.6,235.8 748,238.2 689.6,296.6 689.6,306.2 752.8,243 755.2,245.4 758.7,232.3 	"/>
	<g>
		<defs>
			<rect id="SVGID_49_" x="689.6" y="174.5" width="146.6" height="147.1"/>
		</defs>
		<clipPath id="SVGID_50_">
			<use xlink:href="#SVGID_49_"  style="overflow:visible;"/>
		</clipPath>
		<polygon class="st58" points="758.7,232.3 745.6,235.8 748,238.2 682.9,303.3 687.7,308.1 752.8,243 755.2,245.4 		"/>
		<path class="st59" d="M818.8,226.2l-13.1,3.5l2.4,2.4l-33.5,33.5c-1.2,1.2-2.8,1.8-4.4,1.8s-3.3-0.7-4.4-1.8l-37.3-37.3
			c-5.1-5.1-13.4-5.1-18.5,0l-27,27l4.8,4.8l27-27c2.5-2.5,6.4-2.5,8.9,0l37.3,37.3c2.5,2.5,5.8,3.8,9.3,3.8c3.5,0,6.8-1.4,9.3-3.8
			l33.5-33.5l2.4,2.4L818.8,226.2z"/>
		<path class="st59" d="M702.1,334.5l-4.8-4.8l30.3-30.3c2.5-2.5,2.5-6.4,0-8.9c-1.2-1.2-2.8-1.8-4.4-1.8c-1.7,0-3.3,0.7-4.4,1.8
			L705.2,304c-5.1,5.1-13.4,5.1-18.5,0l-5.6-5.6l4.8-4.8l5.6,5.6c2.5,2.5,6.4,2.5,8.9,0l13.5-13.5c5.1-5.1,13.4-5.1,18.5,0
			c5.1,5.1,5.1,13.4,0,18.5L702.1,334.5z"/>
		<path class="st60" d="M756.8,218.1l2.4,2.4l3.5-13.1l-13.1,3.5l2.4,2.4l-28.2,28.2c-2.5,2.5-3.8,5.8-3.8,9.3s1.4,6.8,3.8,9.3
			l25.3,25.3c2.5,2.5,2.5,6.4,0,8.9L712.2,331l4.8,4.8l36.9-36.9c5.1-5.1,5.1-13.4,0-18.5l-25.3-25.3c-1.2-1.2-1.8-2.8-1.8-4.4
			c0-1.7,0.7-3.3,1.8-4.4L756.8,218.1z"/>
		<path class="st58" d="M756.8,218.1l2.4,2.4l3.5-13.1l-13.1,3.5l2.4,2.4l-28.2,28.2c-2.5,2.5-3.8,5.8-3.8,9.3s1.4,6.8,3.8,9.3
			l25.3,25.3c2.5,2.5,2.5,6.4,0,8.9L712.2,331l4.8,4.8l36.9-36.9c5.1-5.1,5.1-13.4,0-18.5l-25.3-25.3c-1.2-1.2-1.8-2.8-1.8-4.4
			c0-1.7,0.7-3.3,1.8-4.4L756.8,218.1z"/>
	</g>
</g>
<g>
	<g>
		<defs>
			<rect id="SVGID_51_" x="143.8" y="37.7" width="46.8" height="47.1"/>
		</defs>
		<clipPath id="SVGID_52_">
			<use xlink:href="#SVGID_51_"  style="overflow:visible;"/>
		</clipPath>
		<path class="st61" d="M141.4,84.1l7.8,5.9l7.8-5.9l7.8,5.9l7.8-5.9l7.8,5.9l7.8-5.9l7.8,5.9 M141.4,75.1l7.8,5.9l7.8-5.9l7.8,5.9
			l7.8-5.9l7.8,5.9l7.8-5.9l7.8,5.9 M141.4,66.4l7.8,5.9l7.8-5.9l7.8,5.9l7.8-5.9l7.8,5.9l7.8-5.9l7.8,5.9 M141.4,57.4l7.8,5.9
			l7.8-5.9l7.8,5.9l7.8-5.9l7.8,5.9l7.8-5.9l7.8,5.9 M141.4,48.7l7.8,5.9l7.8-5.9l7.8,5.9l7.8-5.9l7.8,5.9l7.8-5.9l7.8,5.9
			 M141.4,39.7l7.8,5.9l7.8-5.9l7.8,5.9l7.8-5.9l7.8,5.9l7.8-5.9l7.8,5.9 M141.4,31l7.8,5.9L157,31l7.8,5.9l7.8-5.9l7.8,5.9l7.8-5.9
			l7.8,5.9"/>
	</g>
	<polygon class="st0" points="153.1,45.6 153.1,54.7 162,54.7 162,80.2 172.5,80.2 172.5,54.7 181.6,54.7 181.6,45.6 	"/>
	<polygon class="st2" points="150.3,44.4 150.3,53.6 159.5,53.6 159.5,78.7 171.2,78.7 171.2,53.8 180.5,53.8 180.5,44.4 	"/>
	<polygon class="st0" points="154.1,52.8 160.2,52.8 167.4,45.4 161.4,45.4 	"/>
	<polygon class="st0" points="160.8,61.8 160.8,63.4 169.7,54.2 169.7,52.7 	"/>
	<polygon class="st0" points="160.8,65.5 160.8,67.1 169.7,57.9 169.7,56.4 	"/>
	<polygon class="st0" points="160.8,69 160.8,70.9 169.7,61.7 169.7,59.8 	"/>
	<polygon class="st2" points="160.7,72.5 160.7,74.5 169.7,65.3 169.7,63.4 	"/>
	<polygon class="st0" points="160.7,76.1 160.7,77.4 161.7,77.5 169.7,69.2 169.7,66.9 	"/>
	<polygon class="st0" points="162.9,77.4 165.2,77.5 169.7,72.7 169.7,70.4 	"/>
	<polygon class="st0" points="166.3,77.4 169,77.5 169.7,76.8 169.7,73.8 	"/>
</g>
<g>
	<rect x="404.9" y="26.6" class="st10" width="39" height="39"/>
	<g>
		<defs>
			<rect id="SVGID_53_" x="404.9" y="26.6" width="39.1" height="39.1"/>
		</defs>
		<clipPath id="SVGID_54_">
			<use xlink:href="#SVGID_53_"  style="overflow:visible;"/>
		</clipPath>
		<path class="st62" d="M421.5,54.6L416,65.7h7.8l0.7-9.2L421.5,54.6z M406.8,65.7h1.9l7.6-9.1l-0.2-0.9L406.8,65.7z M430.8,53
			l11.1,12.7h2.2v-6.3l-11.4-10L430.8,53z M423,42.1l-6-15.4h-9.1l12.2,16.1L423,42.1z M438.3,26.6l-10.1,14.2l1-0.2l10.7-14H438.3z
			 M424.7,26.6l0.2,14.8l2.2-0.4l9.8-14.4H424.7z M414.3,50.4l-1.2-0.6l-8.1,2.4v2.7l5.6-2.7C410.5,52.1,414.3,50.5,414.3,50.4
			 M433.6,39.6l2.9-0.7l7.5-4.1v-2L433.6,39.6z"/>
	</g>
	<polygon class="st0" points="419.1,59.6 411.3,51.7 411.3,40.6 419.1,32.8 430.2,32.8 438.1,40.6 438.1,51.7 430.2,59.6 	"/>
	<g>
		<path class="st10" d="M422.6,51.6c0-0.5,0.2-0.9,0.5-1.2s0.7-0.5,1.2-0.5c0.5,0,0.9,0.2,1.2,0.5s0.5,0.7,0.5,1.2
			c0,0.5-0.2,0.9-0.5,1.2c-0.3,0.3-0.7,0.5-1.2,0.5c-0.5,0-0.9-0.2-1.2-0.5C422.7,52.4,422.6,52,422.6,51.6z M425.4,48.5h-2.2
			l-0.6-9.2h3.4L425.4,48.5z"/>
	</g>
</g>
<g>
	<g>
		<defs>
			<rect id="SVGID_55_" x="277.8" y="112.5" width="58.5" height="55.7"/>
		</defs>
		<clipPath id="SVGID_56_">
			<use xlink:href="#SVGID_55_"  style="overflow:visible;"/>
		</clipPath>
		<path class="st63" d="M318.5,138.7v-7.2c-3.2,0-5.8,1.9-6.8,5c-1.2,3.8,0.8,7.8,4.6,9c3.8,1.2,7.8-0.8,9-4.6L318.5,138.7z"/>
		<path class="st63" d="M320.7,137l6.2,2c0.2-0.6,0.2-1.1,0.2-1.8c0-3.6-2.9-6.6-6.5-6.8V137z M327.4,139.9l-7.4-2.4v-7.8h0.4
			c4.2,0,7.5,3.4,7.5,7.5c0,0.8-0.1,1.5-0.4,2.3L327.4,139.9z"/>
		<path class="st63" d="M287.1,148.3l5.6-11.4l4,6.9l2-3.3l4.5,7.7H287.1z M300.7,133.9c1.2,0,2.2,1,2.2,2.2s-1,2.2-2.2,2.2
			s-2.2-1-2.2-2.2S299.5,133.9,300.7,133.9 M286.1,149.9h19.2v-18.3h-19.2V149.9z"/>
	</g>
	<rect x="306.2" y="162.1" class="st2" width="30.1" height="6.1"/>
	<rect x="280.4" y="112.5" class="st2" width="19.7" height="8.4"/>
	<polygon class="st10" points="335.1,157.2 335.1,161.3 282.7,161.3 282.7,157.2 281.4,157.2 281.4,162.6 336.4,162.6 336.4,157.2 	
		"/>
	<rect x="332.6" y="151.8" class="st10" width="1.3" height="5.5"/>
	<rect x="279" y="151.8" class="st10" width="1.3" height="5.5"/>
	<rect x="314.5" y="150.4" class="st2" width="9.8" height="0.7"/>
	<rect x="314.5" y="148.1" class="st2" width="14.8" height="0.7"/>
	<polygon class="st2" points="305.4,149.4 287.4,149.4 288.9,146.3 286.2,146.3 286.2,151.2 307.7,151.2 307.7,146.3 303.6,146.3 	
		"/>
	<rect x="281.4" y="146.3" class="st10" width="1.3" height="5.5"/>
	<rect x="335.1" y="146.3" class="st10" width="1.3" height="5.5"/>
	<g>
		<defs>
			<rect id="SVGID_57_" x="277.8" y="112.5" width="58.5" height="55.7"/>
		</defs>
		<clipPath id="SVGID_58_">
			<use xlink:href="#SVGID_57_"  style="overflow:visible;"/>
		</clipPath>
		<path class="st64" d="M314.6,145.6c-2.4-0.8-4.1-2.6-4.8-4.8h-6.9v5.5h27.3v-5.5h-6.1C322.8,144.8,318.5,146.9,314.6,145.6"/>
	</g>
	<polygon class="st2" points="298.7,146.3 295.5,140.8 295.4,140.8 293.2,144.4 291.2,140.8 286.8,140.8 284.1,146.3 	"/>
	<rect x="330.2" y="140.8" class="st10" width="1.3" height="5.5"/>
	<rect x="279.6" y="140.8" class="st10" width="1.3" height="5.5"/>
	<polygon class="st2" points="300.3,140.8 300.4,140.8 300.3,140.8 	"/>
	<g>
		<defs>
			<rect id="SVGID_59_" x="277.8" y="112.5" width="58.5" height="55.7"/>
		</defs>
		<clipPath id="SVGID_60_">
			<use xlink:href="#SVGID_59_"  style="overflow:visible;"/>
		</clipPath>
		<path class="st65" d="M296.6,135.6c0,1.3,1.1,2.4,2.4,2.4s2.4-1.1,2.4-2.4c0-0.1,0-0.2,0-0.3h-4.8
			C296.6,135.5,296.6,135.5,296.6,135.6"/>
	</g>
	<polygon class="st2" points="290.1,136.7 288.1,140.8 292.5,140.8 	"/>
	<g>
		<defs>
			<rect id="SVGID_61_" x="277.8" y="112.5" width="58.5" height="55.7"/>
		</defs>
		<clipPath id="SVGID_62_">
			<use xlink:href="#SVGID_61_"  style="overflow:visible;"/>
		</clipPath>
		<path class="st66" d="M311.1,140.8c-0.5-1.5-0.6-3.1,0-4.8c0.1-0.2,0.2-0.5,0.3-0.7h-7.1v5.5H311.1z"/>
		<path class="st66" d="M327.7,140.2l0.2-0.5c0.3-0.8,0.4-1.6,0.4-2.5c0-0.6-0.1-1.2-0.2-1.8h-1.1c0.2,0.6,0.2,1.2,0.2,1.8
			c0,0.6-0.1,1.1-0.2,1.6l-6.3-2v-1.4h-1.1v2.2L327.7,140.2z"/>
	</g>
	<rect x="277.8" y="135.4" class="st10" width="1.3" height="5.5"/>
	<rect x="331.5" y="135.4" class="st2" width="1.3" height="5.5"/>
	<g>
		<defs>
			<rect id="SVGID_63_" x="277.8" y="112.5" width="58.5" height="55.7"/>
		</defs>
		<clipPath id="SVGID_64_">
			<use xlink:href="#SVGID_63_"  style="overflow:visible;"/>
		</clipPath>
		<path class="st67" d="M316.9,130.8c-3.1,0-5.7,1.8-6.9,4.5h6.9V130.8z"/>
		<path class="st68" d="M319.4,130.2c3,0.2,5.5,2.4,6.2,5.2h1.1c-0.5-2.4-2.2-4.4-4.3-5.5h-4.2v5.5h1.1V130.2z"/>
		<path class="st68" d="M297.7,133.2c1.2,0,2.3,0.9,2.4,2.1h2.8v-4.7h-21.5v4.7h13.9C295.4,134.2,296.4,133.2,297.7,133.2"/>
	</g>
	<rect x="330.2" y="129.9" class="st10" width="1.3" height="5.5"/>
	<rect x="279.6" y="129.9" class="st10" width="1.3" height="5.5"/>
	<g>
		<defs>
			<rect id="SVGID_65_" x="277.8" y="112.5" width="58.5" height="55.7"/>
		</defs>
		<clipPath id="SVGID_66_">
			<use xlink:href="#SVGID_65_"  style="overflow:visible;"/>
		</clipPath>
		<path class="st69" d="M317.5,129h-0.6v0.9h4.2C320,129.4,318.8,129,317.5,129"/>
	</g>
	<rect x="281.4" y="124.4" class="st10" width="1.3" height="5.5"/>
	<rect x="335.1" y="124.4" class="st10" width="1.3" height="5.5"/>
	<polygon class="st10" points="280.3,120.9 332.6,120.9 332.6,124.4 333.9,124.4 333.9,119.6 279,119.6 279,124.4 280.3,124.4 	"/>
	<rect x="318.3" y="123.8" class="st10" width="14.3" height="0.6"/>
	<rect x="281.4" y="129.3" class="st2" width="16.4" height="0.6"/>
	<rect x="281.4" y="157.2" class="st10" width="14.3" height="0.6"/>
	<rect x="319.6" y="151.8" class="st10" width="14.3" height="0.6"/>
	<rect x="317.1" y="140.8" class="st2" width="14.3" height="0.6"/>
	<rect x="279.6" y="140.2" class="st10" width="14.3" height="0.6"/>
	<rect x="315.4" y="134.8" class="st0" width="14.3" height="0.6"/>
	<rect x="294.4" y="114.2" class="st2" width="19.7" height="3.3"/>
	<rect x="311.6" y="149.9" class="st10" width="11.1" height="0.8"/>
	<rect x="311.6" y="147.3" class="st10" width="16.8" height="0.8"/>
</g>
<g>
	<g>
		<path d="M55.5,431h3.2v6.5L64,431h2.9v11h-3.2v-6.5l-5.3,6.5h-2.9V431z"/>
		<path d="M72.4,441.4c-0.9-0.5-1.7-1.2-2.2-2c-0.5-0.9-0.8-1.8-0.8-2.9s0.3-2.1,0.8-2.9c0.5-0.9,1.3-1.5,2.2-2
			c0.9-0.5,2-0.7,3.2-0.7c1.2,0,2.2,0.2,3,0.7c0.9,0.5,1.5,1.2,1.9,2.1l-2.5,1.3c-0.6-1-1.4-1.5-2.5-1.5c-0.8,0-1.5,0.3-2.1,0.8
			s-0.8,1.3-0.8,2.2c0,0.9,0.3,1.7,0.8,2.2c0.5,0.5,1.2,0.8,2.1,0.8c1.1,0,1.9-0.5,2.5-1.5l2.5,1.3c-0.4,0.9-1,1.6-1.9,2
			c-0.9,0.5-1.9,0.7-3,0.7C74.4,442.2,73.4,441.9,72.4,441.4z"/>
		<path d="M85,441.4c-0.9-0.5-1.7-1.2-2.2-2c-0.5-0.9-0.8-1.8-0.8-2.9s0.3-2.1,0.8-2.9c0.5-0.9,1.3-1.5,2.2-2c0.9-0.5,2-0.7,3.2-0.7
			c1.2,0,2.2,0.2,3,0.7c0.9,0.5,1.5,1.2,1.9,2.1l-2.5,1.3c-0.6-1-1.4-1.5-2.5-1.5c-0.8,0-1.5,0.3-2.1,0.8s-0.8,1.3-0.8,2.2
			c0,0.9,0.3,1.7,0.8,2.2c0.5,0.5,1.2,0.8,2.1,0.8c1.1,0,1.9-0.5,2.5-1.5l2.5,1.3c-0.4,0.9-1,1.6-1.9,2c-0.9,0.5-1.9,0.7-3,0.7
			C86.9,442.2,85.9,441.9,85,441.4z"/>
		<path d="M105.9,431v11h-3.2v-8.4h-3.5l-0.1,1.9c-0.1,1.4-0.2,2.6-0.4,3.6c-0.2,1-0.6,1.7-1.1,2.2c-0.5,0.5-1.2,0.8-2,0.8
			c-0.5,0-1-0.1-1.7-0.2l0.2-2.6c0.2,0,0.4,0,0.5,0c0.5,0,0.8-0.2,1.1-0.5c0.2-0.3,0.4-0.8,0.5-1.3c0.1-0.5,0.1-1.2,0.2-2.1l0.2-4.4
			H105.9z"/>
		<path d="M120,437.4h-8.3c0.1,0.7,0.5,1.2,1.1,1.6c0.6,0.4,1.3,0.6,2.1,0.6c0.6,0,1.1-0.1,1.5-0.3c0.4-0.2,0.9-0.4,1.2-0.8l1.7,1.8
			c-1,1.2-2.5,1.8-4.5,1.8c-1.2,0-2.3-0.2-3.3-0.7c-1-0.5-1.7-1.2-2.2-2c-0.5-0.9-0.8-1.8-0.8-2.9c0-1.1,0.3-2,0.8-2.9
			s1.2-1.5,2.1-2c0.9-0.5,1.9-0.7,3-0.7c1.1,0,2,0.2,2.9,0.7c0.9,0.5,1.6,1.1,2.1,2c0.5,0.9,0.7,1.9,0.7,3
			C120.1,436.6,120.1,436.9,120,437.4z M112.6,433.9c-0.5,0.4-0.8,1-0.9,1.7h5.4c-0.1-0.7-0.4-1.2-0.9-1.7c-0.5-0.4-1.1-0.6-1.8-0.6
			C113.7,433.3,113.1,433.5,112.6,433.9z"/>
		<path d="M135.3,439.4v5h-3V442h-7.7v2.4h-3v-5h0.5c0.7,0,1.2-0.4,1.4-1.2c0.3-0.8,0.4-1.9,0.5-3.4l0.1-3.8h9.6v8.4H135.3z
			 M126.6,437.8c-0.1,0.7-0.4,1.2-0.7,1.6h4.6v-5.8h-3.6l-0.1,1.4C126.8,436.2,126.7,437.1,126.6,437.8z"/>
		<path d="M139.7,441.4c-0.9-0.5-1.6-1.2-2.2-2c-0.5-0.9-0.8-1.8-0.8-2.9s0.3-2.1,0.8-2.9c0.5-0.9,1.2-1.5,2.2-2
			c0.9-0.5,2-0.7,3.1-0.7c1.2,0,2.2,0.2,3.1,0.7c0.9,0.5,1.6,1.2,2.1,2c0.5,0.9,0.8,1.8,0.8,2.9s-0.3,2.1-0.8,2.9
			c-0.5,0.9-1.2,1.5-2.1,2c-0.9,0.5-1.9,0.7-3.1,0.7C141.7,442.2,140.6,441.9,139.7,441.4z M144.8,438.7c0.5-0.6,0.8-1.3,0.8-2.2
			c0-0.9-0.3-1.7-0.8-2.2c-0.5-0.6-1.2-0.8-2-0.8s-1.5,0.3-2,0.8c-0.5,0.6-0.8,1.3-0.8,2.2c0,0.9,0.3,1.7,0.8,2.2s1.2,0.8,2,0.8
			S144.3,439.3,144.8,438.7z"/>
		<path d="M161.8,438.9c0,1-0.4,1.8-1.1,2.3c-0.8,0.5-1.9,0.8-3.4,0.8h-5.9v-11h5.6c1.4,0,2.5,0.2,3.2,0.7s1.2,1.2,1.2,2.1
			c0,0.5-0.1,1-0.4,1.4c-0.3,0.4-0.7,0.7-1.2,1C161.1,436.7,161.8,437.6,161.8,438.9z M154.4,435.5h2.4c1.1,0,1.7-0.4,1.7-1.2
			c0-0.8-0.6-1.2-1.7-1.2h-2.4V435.5z M158.8,438.6c0-0.4-0.1-0.7-0.4-0.9s-0.7-0.3-1.3-0.3h-2.7v2.4h2.7
			C158.2,439.8,158.8,439.4,158.8,438.6z"/>
		<path d="M172.8,432.1c0.9,0.8,1.4,2,1.4,3.7v6.3h-3v-1.4c-0.6,1-1.7,1.5-3.4,1.5c-0.8,0-1.6-0.1-2.2-0.4c-0.6-0.3-1.1-0.7-1.4-1.2
			c-0.3-0.5-0.5-1.1-0.5-1.7c0-1,0.4-1.8,1.2-2.4c0.8-0.6,2-0.9,3.6-0.9h2.5c0-0.7-0.2-1.2-0.6-1.6c-0.4-0.4-1.1-0.6-1.9-0.6
			c-0.6,0-1.2,0.1-1.7,0.3c-0.6,0.2-1,0.4-1.4,0.7l-1.1-2.2c0.6-0.4,1.3-0.7,2.2-1c0.8-0.2,1.7-0.3,2.6-0.3
			C170.5,430.8,171.8,431.3,172.8,432.1z M170,439.6c0.4-0.3,0.7-0.6,0.9-1.1v-1.1h-2.2c-1.3,0-2,0.4-2,1.3c0,0.4,0.2,0.7,0.5,1
			c0.3,0.2,0.8,0.4,1.3,0.4C169.1,440,169.6,439.9,170,439.6z"/>
		<path d="M177.3,431h3.2v4.3h4.8V431h3.2v11h-3.2v-4.1h-4.8v4.1h-3.2V431z"/>
		<path d="M191.9,431h3.2v6.5l5.4-6.5h2.9v11h-3.2v-6.5l-5.3,6.5h-2.9V431z"/>
		<path d="M217.4,437.4h-8.3c0.1,0.7,0.5,1.2,1.1,1.6c0.6,0.4,1.3,0.6,2.1,0.6c0.6,0,1.1-0.1,1.5-0.3c0.4-0.2,0.9-0.4,1.2-0.8
			l1.7,1.8c-1,1.2-2.5,1.8-4.5,1.8c-1.2,0-2.3-0.2-3.3-0.7c-1-0.5-1.7-1.2-2.2-2c-0.5-0.9-0.8-1.8-0.8-2.9c0-1.1,0.3-2,0.8-2.9
			s1.2-1.5,2.1-2c0.9-0.5,1.9-0.7,3-0.7c1.1,0,2,0.2,2.9,0.7c0.9,0.5,1.6,1.1,2.1,2c0.5,0.9,0.7,1.9,0.7,3
			C217.5,436.6,217.5,436.9,217.4,437.4z M210,433.9c-0.5,0.4-0.8,1-0.9,1.7h5.4c-0.1-0.7-0.4-1.2-0.9-1.7c-0.5-0.4-1.1-0.6-1.8-0.6
			C211.1,433.3,210.5,433.5,210,433.9z"/>
		<path d="M219.9,435h5.8v2.6h-5.8V435z"/>
		<path d="M230.7,441.4c-0.9-0.5-1.6-1.2-2.2-2c-0.5-0.9-0.8-1.8-0.8-2.9s0.3-2.1,0.8-2.9c0.5-0.9,1.2-1.5,2.2-2
			c0.9-0.5,2-0.7,3.1-0.7c1.2,0,2.2,0.2,3.1,0.7c0.9,0.5,1.6,1.2,2.1,2c0.5,0.9,0.8,1.8,0.8,2.9s-0.3,2.1-0.8,2.9
			c-0.5,0.9-1.2,1.5-2.1,2c-0.9,0.5-1.9,0.7-3.1,0.7C232.7,442.2,231.6,441.9,230.7,441.4z M235.8,438.7c0.5-0.6,0.8-1.3,0.8-2.2
			c0-0.9-0.3-1.7-0.8-2.2c-0.5-0.6-1.2-0.8-2-0.8s-1.5,0.3-2,0.8c-0.5,0.6-0.8,1.3-0.8,2.2c0,0.9,0.3,1.7,0.8,2.2s1.2,0.8,2,0.8
			S235.3,439.3,235.8,438.7z"/>
		<path d="M253.4,431v11h-3.2v-8.4h-4.6v8.4h-3.2v-11H253.4z"/>
		<path d="M266.1,431.6c0.8,0.5,1.5,1.1,2,2c0.5,0.9,0.7,1.8,0.7,3s-0.2,2.1-0.7,3s-1.1,1.5-2,2c-0.8,0.5-1.8,0.7-2.8,0.7
			c-1.4,0-2.5-0.4-3.3-1.3v5.1h-3.2v-15h3v1.3c0.8-1,1.9-1.4,3.5-1.4C264.3,430.8,265.3,431.1,266.1,431.6z M264.8,438.7
			c0.5-0.6,0.8-1.3,0.8-2.2c0-0.9-0.3-1.7-0.8-2.2c-0.5-0.6-1.2-0.8-2-0.8s-1.5,0.3-2,0.8c-0.5,0.6-0.8,1.3-0.8,2.2
			c0,0.9,0.3,1.7,0.8,2.2s1.2,0.8,2,0.8S264.3,439.3,264.8,438.7z"/>
		<path d="M273.5,441.4c-0.9-0.5-1.6-1.2-2.2-2c-0.5-0.9-0.8-1.8-0.8-2.9s0.3-2.1,0.8-2.9c0.5-0.9,1.2-1.5,2.2-2
			c0.9-0.5,2-0.7,3.1-0.7c1.2,0,2.2,0.2,3.1,0.7c0.9,0.5,1.6,1.2,2.1,2c0.5,0.9,0.8,1.8,0.8,2.9s-0.3,2.1-0.8,2.9
			c-0.5,0.9-1.2,1.5-2.1,2c-0.9,0.5-1.9,0.7-3.1,0.7C275.4,442.2,274.4,441.9,273.5,441.4z M278.6,438.7c0.5-0.6,0.8-1.3,0.8-2.2
			c0-0.9-0.3-1.7-0.8-2.2c-0.5-0.6-1.2-0.8-2-0.8s-1.5,0.3-2,0.8c-0.5,0.6-0.8,1.3-0.8,2.2c0,0.9,0.3,1.7,0.8,2.2s1.2,0.8,2,0.8
			S278.1,439.3,278.6,438.7z"/>
		<path d="M287.3,441.4c-0.9-0.5-1.7-1.2-2.2-2c-0.5-0.9-0.8-1.8-0.8-2.9s0.3-2.1,0.8-2.9c0.5-0.9,1.3-1.5,2.2-2
			c0.9-0.5,2-0.7,3.2-0.7c1.2,0,2.2,0.2,3,0.7c0.9,0.5,1.5,1.2,1.9,2.1l-2.5,1.3c-0.6-1-1.4-1.5-2.5-1.5c-0.8,0-1.5,0.3-2.1,0.8
			s-0.8,1.3-0.8,2.2c0,0.9,0.3,1.7,0.8,2.2c0.5,0.5,1.2,0.8,2.1,0.8c1.1,0,1.9-0.5,2.5-1.5l2.5,1.3c-0.4,0.9-1,1.6-1.9,2
			c-0.9,0.5-1.9,0.7-3,0.7C289.3,442.2,288.2,441.9,287.3,441.4z"/>
		<path d="M306,441.4c-0.9-0.5-1.7-1.2-2.2-2c-0.5-0.9-0.8-1.8-0.8-2.9s0.3-2.1,0.8-2.9c0.5-0.9,1.3-1.5,2.2-2
			c0.9-0.5,2-0.7,3.2-0.7c1.2,0,2.2,0.2,3,0.7c0.9,0.5,1.5,1.2,1.9,2.1l-2.5,1.3c-0.6-1-1.4-1.5-2.5-1.5c-0.8,0-1.5,0.3-2.1,0.8
			s-0.8,1.3-0.8,2.2c0,0.9,0.3,1.7,0.8,2.2c0.5,0.5,1.2,0.8,2.1,0.8c1.1,0,1.9-0.5,2.5-1.5l2.5,1.3c-0.4,0.9-1,1.6-1.9,2
			c-0.9,0.5-1.9,0.7-3,0.7C308,442.2,306.9,441.9,306,441.4z"/>
		<path d="M325.7,431.6c0.8,0.5,1.5,1.1,2,2c0.5,0.9,0.7,1.8,0.7,3s-0.2,2.1-0.7,3s-1.1,1.5-2,2c-0.8,0.5-1.8,0.7-2.8,0.7
			c-1.4,0-2.5-0.4-3.3-1.3v5.1h-3.2v-15h3v1.3c0.8-1,1.9-1.4,3.5-1.4C323.9,430.8,324.8,431.1,325.7,431.6z M324.3,438.7
			c0.5-0.6,0.8-1.3,0.8-2.2c0-0.9-0.3-1.7-0.8-2.2c-0.5-0.6-1.2-0.8-2-0.8s-1.5,0.3-2,0.8c-0.5,0.6-0.8,1.3-0.8,2.2
			c0,0.9,0.3,1.7,0.8,2.2s1.2,0.8,2,0.8S323.8,439.3,324.3,438.7z"/>
		<path d="M341.6,437.4h-8.3c0.1,0.7,0.5,1.2,1.1,1.6c0.6,0.4,1.3,0.6,2.1,0.6c0.6,0,1.1-0.1,1.5-0.3c0.4-0.2,0.9-0.4,1.2-0.8
			l1.7,1.8c-1,1.2-2.5,1.8-4.5,1.8c-1.2,0-2.3-0.2-3.3-0.7c-1-0.5-1.7-1.2-2.2-2c-0.5-0.9-0.8-1.8-0.8-2.9c0-1.1,0.3-2,0.8-2.9
			s1.2-1.5,2.1-2c0.9-0.5,1.9-0.7,3-0.7c1.1,0,2,0.2,2.9,0.7c0.9,0.5,1.6,1.1,2.1,2c0.5,0.9,0.7,1.9,0.7,3
			C341.7,436.6,341.7,436.9,341.6,437.4z M334.2,433.9c-0.5,0.4-0.8,1-0.9,1.7h5.4c-0.1-0.7-0.4-1.2-0.9-1.7
			c-0.5-0.4-1.1-0.6-1.8-0.6C335.3,433.3,334.6,433.5,334.2,433.9z"/>
		<path d="M356.9,439.4v5h-3V442h-7.7v2.4h-3v-5h0.5c0.7,0,1.2-0.4,1.4-1.2c0.3-0.8,0.4-1.9,0.5-3.4l0.1-3.8h9.6v8.4H356.9z
			 M348.2,437.8c-0.1,0.7-0.4,1.2-0.7,1.6h4.6v-5.8h-3.6l-0.1,1.4C348.4,436.2,348.3,437.1,348.2,437.8z"/>
		<path d="M359.3,431h3.2v6.5l5.4-6.5h2.9v11h-3.2v-6.5l-5.3,6.5h-2.9V431z"/>
		<path d="M57.5,466c-0.9-0.5-1.6-1.2-2.2-2c-0.5-0.9-0.8-1.8-0.8-2.9s0.3-2.1,0.8-2.9c0.5-0.9,1.2-1.5,2.2-2c0.9-0.5,2-0.7,3.1-0.7
			c1.2,0,2.2,0.2,3.1,0.7c0.9,0.5,1.6,1.2,2.1,2c0.5,0.9,0.8,1.8,0.8,2.9s-0.3,2.1-0.8,2.9c-0.5,0.9-1.2,1.5-2.1,2
			c-0.9,0.5-1.9,0.7-3.1,0.7C59.4,466.7,58.4,466.4,57.5,466z M62.6,463.2c0.5-0.6,0.8-1.3,0.8-2.2c0-0.9-0.3-1.7-0.8-2.2
			c-0.5-0.6-1.2-0.8-2-0.8s-1.5,0.3-2,0.8c-0.5,0.6-0.8,1.3-0.8,2.2c0,0.9,0.3,1.7,0.8,2.2s1.2,0.8,2,0.8S62.1,463.8,62.6,463.2z"/>
		<path d="M78.5,456.1c0.8,0.5,1.5,1.1,2,2c0.5,0.9,0.7,1.8,0.7,3s-0.2,2.1-0.7,3s-1.1,1.5-2,2c-0.8,0.5-1.8,0.7-2.8,0.7
			c-1.4,0-2.5-0.4-3.3-1.3v5.1h-3.2v-15h3v1.3c0.8-1,1.9-1.4,3.5-1.4C76.7,455.4,77.7,455.6,78.5,456.1z M77.2,463.2
			c0.5-0.6,0.8-1.3,0.8-2.2c0-0.9-0.3-1.7-0.8-2.2c-0.5-0.6-1.2-0.8-2-0.8s-1.5,0.3-2,0.8c-0.5,0.6-0.8,1.3-0.8,2.2
			c0,0.9,0.3,1.7,0.8,2.2s1.2,0.8,2,0.8S76.6,463.8,77.2,463.2z"/>
		<path d="M92.6,458.1H87v8.4h-3.2v-11h8.8V458.1z"/>
		<path d="M102.9,456.6c0.9,0.8,1.4,2,1.4,3.7v6.3h-3v-1.4c-0.6,1-1.7,1.5-3.4,1.5c-0.8,0-1.6-0.1-2.2-0.4c-0.6-0.3-1.1-0.7-1.4-1.2
			c-0.3-0.5-0.5-1.1-0.5-1.7c0-1,0.4-1.8,1.2-2.4c0.8-0.6,2-0.9,3.6-0.9h2.5c0-0.7-0.2-1.2-0.6-1.6c-0.4-0.4-1.1-0.6-1.9-0.6
			c-0.6,0-1.2,0.1-1.7,0.3c-0.6,0.2-1,0.4-1.4,0.7l-1.1-2.2c0.6-0.4,1.3-0.7,2.2-1c0.8-0.2,1.7-0.3,2.6-0.3
			C100.7,455.4,102,455.8,102.9,456.6z M100.2,464.2c0.4-0.3,0.7-0.6,0.9-1.1v-1.1h-2.2c-1.3,0-2,0.4-2,1.3c0,0.4,0.2,0.7,0.5,1
			c0.3,0.2,0.8,0.4,1.3,0.4C99.3,464.5,99.8,464.4,100.2,464.2z"/>
		<path d="M107.5,455.5h3.2v4.3h4.8v-4.3h3.2v11h-3.2v-4.1h-4.8v4.1h-3.2V455.5z"/>
		<path d="M122.1,455.5h3.2v6.5l5.4-6.5h2.9v11h-3.2V460l-5.3,6.5h-2.9V455.5z"/>
		<path d="M145.6,461.7c0.4,0.4,0.5,0.9,0.5,1.5c0,0.7-0.2,1.3-0.7,1.8s-1.1,0.9-2,1.2c-0.8,0.3-1.8,0.4-2.8,0.4
			c-0.9,0-1.7-0.1-2.5-0.3s-1.6-0.4-2.3-0.8l0.9-2.2c1.2,0.6,2.4,0.8,3.8,0.8c0.7,0,1.3-0.1,1.8-0.3c0.4-0.2,0.6-0.5,0.6-1
			c0-0.4-0.2-0.6-0.4-0.8c-0.3-0.2-0.7-0.3-1.3-0.3h-2.2v-2h2c0.6,0,1-0.1,1.3-0.3c0.3-0.2,0.4-0.4,0.4-0.8c0-0.4-0.2-0.6-0.6-0.8
			c-0.4-0.2-0.9-0.3-1.6-0.3c-1.1,0-2.2,0.3-3.5,0.8l-0.8-2.2c1.5-0.7,3-1,4.5-1c1,0,1.9,0.1,2.7,0.4s1.4,0.6,1.8,1.1
			c0.5,0.5,0.7,1,0.7,1.6c0,0.5-0.2,1-0.5,1.4c-0.3,0.4-0.7,0.7-1.3,1C144.8,461,145.3,461.3,145.6,461.7z"/>
		<path d="M157.1,456.6c0.9,0.8,1.4,2,1.4,3.7v6.3h-3v-1.4c-0.6,1-1.7,1.5-3.4,1.5c-0.8,0-1.6-0.1-2.2-0.4c-0.6-0.3-1.1-0.7-1.4-1.2
			c-0.3-0.5-0.5-1.1-0.5-1.7c0-1,0.4-1.8,1.2-2.4c0.8-0.6,2-0.9,3.6-0.9h2.5c0-0.7-0.2-1.2-0.6-1.6c-0.4-0.4-1.1-0.6-1.9-0.6
			c-0.6,0-1.2,0.1-1.7,0.3c-0.6,0.2-1,0.4-1.4,0.7l-1.1-2.2c0.6-0.4,1.3-0.7,2.2-1c0.8-0.2,1.7-0.3,2.6-0.3
			C154.9,455.4,156.2,455.8,157.1,456.6z M154.4,464.2c0.4-0.3,0.7-0.6,0.9-1.1v-1.1h-2.2c-1.3,0-2,0.4-2,1.3c0,0.4,0.2,0.7,0.5,1
			c0.3,0.2,0.8,0.4,1.3,0.4C153.5,464.5,153.9,464.4,154.4,464.2z"/>
		<path d="M170.9,458.1h-3.7v8.4H164v-8.4h-3.7v-2.6h10.6V458.1z"/>
		<path d="M175,466c-0.9-0.5-1.6-1.2-2.2-2c-0.5-0.9-0.8-1.8-0.8-2.9s0.3-2.1,0.8-2.9c0.5-0.9,1.2-1.5,2.2-2c0.9-0.5,2-0.7,3.1-0.7
			c1.2,0,2.2,0.2,3.1,0.7c0.9,0.5,1.6,1.2,2.1,2c0.5,0.9,0.8,1.8,0.8,2.9s-0.3,2.1-0.8,2.9c-0.5,0.9-1.2,1.5-2.1,2
			c-0.9,0.5-1.9,0.7-3.1,0.7C177,466.7,175.9,466.4,175,466z M180.1,463.2c0.5-0.6,0.8-1.3,0.8-2.2c0-0.9-0.3-1.7-0.8-2.2
			c-0.5-0.6-1.2-0.8-2-0.8s-1.5,0.3-2,0.8c-0.5,0.6-0.8,1.3-0.8,2.2c0,0.9,0.3,1.7,0.8,2.2s1.2,0.8,2,0.8S179.6,463.8,180.1,463.2z"
			/>
		<path d="M196,456.1c0.8,0.5,1.5,1.1,2,2c0.5,0.9,0.7,1.8,0.7,3s-0.2,2.1-0.7,3s-1.1,1.5-2,2c-0.8,0.5-1.8,0.7-2.8,0.7
			c-1.4,0-2.5-0.4-3.3-1.3v5.1h-3.2v-15h3v1.3c0.8-1,1.9-1.4,3.5-1.4C194.3,455.4,195.2,455.6,196,456.1z M194.7,463.2
			c0.5-0.6,0.8-1.3,0.8-2.2c0-0.9-0.3-1.7-0.8-2.2c-0.5-0.6-1.2-0.8-2-0.8s-1.5,0.3-2,0.8c-0.5,0.6-0.8,1.3-0.8,2.2
			c0,0.9,0.3,1.7,0.8,2.2s1.2,0.8,2,0.8S194.2,463.8,194.7,463.2z"/>
		<path d="M203.4,466c-0.9-0.5-1.6-1.2-2.2-2c-0.5-0.9-0.8-1.8-0.8-2.9s0.3-2.1,0.8-2.9c0.5-0.9,1.2-1.5,2.2-2
			c0.9-0.5,2-0.7,3.1-0.7c1.2,0,2.2,0.2,3.1,0.7c0.9,0.5,1.6,1.2,2.1,2c0.5,0.9,0.8,1.8,0.8,2.9s-0.3,2.1-0.8,2.9
			c-0.5,0.9-1.2,1.5-2.1,2c-0.9,0.5-1.9,0.7-3.1,0.7C205.3,466.7,204.3,466.4,203.4,466z M208.5,463.2c0.5-0.6,0.8-1.3,0.8-2.2
			c0-0.9-0.3-1.7-0.8-2.2c-0.5-0.6-1.2-0.8-2-0.8s-1.5,0.3-2,0.8c-0.5,0.6-0.8,1.3-0.8,2.2c0,0.9,0.3,1.7,0.8,2.2s1.2,0.8,2,0.8
			S208,463.8,208.5,463.2z"/>
		<path d="M225.5,463.4c0,1-0.4,1.8-1.1,2.3c-0.8,0.5-1.9,0.8-3.4,0.8h-5.9v-11h5.6c1.4,0,2.5,0.2,3.2,0.7s1.2,1.2,1.2,2.1
			c0,0.5-0.1,1-0.4,1.4c-0.3,0.4-0.7,0.7-1.2,1C224.8,461.2,225.5,462.1,225.5,463.4z M218,460h2.4c1.1,0,1.7-0.4,1.7-1.2
			c0-0.8-0.6-1.2-1.7-1.2H218V460z M222.5,463.2c0-0.4-0.1-0.7-0.4-0.9s-0.7-0.3-1.3-0.3H218v2.4h2.7
			C221.9,464.4,222.5,464,222.5,463.2z"/>
		<path d="M245.6,454.9H241v11.6h-3.3v-11.6h-4.6v-2.7h12.4V454.9z"/>
		<path d="M250.9,465.8c-1.2-0.6-2.1-1.5-2.8-2.6c-0.7-1.1-1-2.4-1-3.8s0.3-2.7,1-3.8c0.7-1.1,1.6-2,2.8-2.6c1.2-0.6,2.5-1,4-1
			c1.5,0,2.8,0.3,4,1c1.2,0.6,2.1,1.5,2.8,2.6c0.7,1.1,1,2.4,1,3.8s-0.3,2.7-1,3.8c-0.7,1.1-1.6,2-2.8,2.6c-1.2,0.6-2.5,1-4,1
			C253.4,466.8,252.1,466.4,250.9,465.8z M257.2,463.4c0.7-0.4,1.2-0.9,1.6-1.6c0.4-0.7,0.6-1.5,0.6-2.4s-0.2-1.7-0.6-2.4
			c-0.4-0.7-0.9-1.2-1.6-1.6c-0.7-0.4-1.4-0.6-2.3-0.6c-0.8,0-1.6,0.2-2.3,0.6c-0.7,0.4-1.2,0.9-1.6,1.6c-0.4,0.7-0.6,1.5-0.6,2.4
			s0.2,1.7,0.6,2.4c0.4,0.7,0.9,1.2,1.6,1.6c0.7,0.4,1.4,0.6,2.3,0.6C255.8,463.9,256.5,463.8,257.2,463.4z"/>
		<path d="M278.7,452.2v14.3h-3.3v-11.6H269v11.6h-3.3v-14.3H278.7z"/>
		<path d="M282,459.5h5.8v2.6H282V459.5z"/>
		<path d="M295.6,462.4h-1.7v4.2h-3.2v-11h3.2v4.3h1.7l3-4.3h3.4l-3.8,5.3l4.1,5.7h-3.8L295.6,462.4z"/>
		<path d="M306.3,466c-0.9-0.5-1.6-1.2-2.2-2c-0.5-0.9-0.8-1.8-0.8-2.9s0.3-2.1,0.8-2.9c0.5-0.9,1.2-1.5,2.2-2
			c0.9-0.5,2-0.7,3.1-0.7c1.2,0,2.2,0.2,3.1,0.7c0.9,0.5,1.6,1.2,2.1,2c0.5,0.9,0.8,1.8,0.8,2.9s-0.3,2.1-0.8,2.9
			c-0.5,0.9-1.2,1.5-2.1,2c-0.9,0.5-1.9,0.7-3.1,0.7C308.3,466.7,307.2,466.4,306.3,466z M311.4,463.2c0.5-0.6,0.8-1.3,0.8-2.2
			c0-0.9-0.3-1.7-0.8-2.2c-0.5-0.6-1.2-0.8-2-0.8s-1.5,0.3-2,0.8c-0.5,0.6-0.8,1.3-0.8,2.2c0,0.9,0.3,1.7,0.8,2.2s1.2,0.8,2,0.8
			S310.9,463.8,311.4,463.2z"/>
		<path d="M318.1,455.5h3.2v4.3h4.8v-4.3h3.2v11H326v-4.1h-4.8v4.1h-3.2V455.5z"/>
		<path d="M346.1,465c-1.1,1-2.8,1.6-4.9,1.7v3.8h-2.9v-3.8c-2.1-0.1-3.7-0.7-4.9-1.7c-1.1-1-1.7-2.3-1.7-4.1c0-1.7,0.6-3,1.7-4
			c1.1-0.9,2.8-1.5,4.9-1.6v-4h2.9v4c2.1,0.1,3.7,0.7,4.9,1.7c1.1,1,1.7,2.3,1.7,3.9C347.8,462.7,347.3,464,346.1,465z M335.7,463.3
			c0.6,0.5,1.4,0.9,2.7,1v-6.4c-1.2,0.1-2.1,0.4-2.7,0.9c-0.6,0.5-0.8,1.2-0.8,2.2C334.8,462,335.1,462.7,335.7,463.3z M343.9,463.3
			c0.6-0.5,0.8-1.3,0.8-2.3c0-0.9-0.3-1.7-0.8-2.2c-0.6-0.5-1.5-0.8-2.7-0.9v6.4C342.5,464.1,343.3,463.8,343.9,463.3z"/>
		<path d="M361,461.9h-8.3c0.1,0.7,0.5,1.2,1.1,1.6c0.6,0.4,1.3,0.6,2.1,0.6c0.6,0,1.1-0.1,1.5-0.3c0.4-0.2,0.9-0.4,1.2-0.8l1.7,1.8
			c-1,1.2-2.5,1.8-4.5,1.8c-1.2,0-2.3-0.2-3.3-0.7c-1-0.5-1.7-1.2-2.2-2c-0.5-0.9-0.8-1.8-0.8-2.9c0-1.1,0.3-2,0.8-2.9
			s1.2-1.5,2.1-2c0.9-0.5,1.9-0.7,3-0.7c1.1,0,2,0.2,2.9,0.7c0.9,0.5,1.6,1.1,2.1,2c0.5,0.9,0.7,1.9,0.7,3
			C361.1,461.1,361.1,461.4,361,461.9z M353.6,458.4c-0.5,0.4-0.8,1-0.9,1.7h5.4c-0.1-0.7-0.4-1.2-0.9-1.7c-0.5-0.4-1.1-0.6-1.8-0.6
			C354.7,457.8,354.1,458,353.6,458.4z"/>
		<path d="M373.2,456.1c0.8,0.5,1.5,1.1,2,2c0.5,0.9,0.7,1.8,0.7,3s-0.2,2.1-0.7,3s-1.1,1.5-2,2c-0.8,0.5-1.8,0.7-2.8,0.7
			c-1.4,0-2.5-0.4-3.3-1.3v5.1h-3.2v-15h3v1.3c0.8-1,1.9-1.4,3.5-1.4C371.4,455.4,372.4,455.6,373.2,456.1z M371.9,463.2
			c0.5-0.6,0.8-1.3,0.8-2.2c0-0.9-0.3-1.7-0.8-2.2c-0.5-0.6-1.2-0.8-2-0.8s-1.5,0.3-2,0.8c-0.5,0.6-0.8,1.3-0.8,2.2
			c0,0.9,0.3,1.7,0.8,2.2s1.2,0.8,2,0.8S371.4,463.8,371.9,463.2z"/>
		<path d="M389.2,461.9h-8.3c0.1,0.7,0.5,1.2,1.1,1.6c0.6,0.4,1.3,0.6,2.1,0.6c0.6,0,1.1-0.1,1.5-0.3c0.4-0.2,0.9-0.4,1.2-0.8
			l1.7,1.8c-1,1.2-2.5,1.8-4.5,1.8c-1.2,0-2.3-0.2-3.3-0.7c-1-0.5-1.7-1.2-2.2-2c-0.5-0.9-0.8-1.8-0.8-2.9c0-1.1,0.3-2,0.8-2.9
			s1.2-1.5,2.1-2c0.9-0.5,1.9-0.7,3-0.7c1.1,0,2,0.2,2.9,0.7c0.9,0.5,1.6,1.1,2.1,2c0.5,0.9,0.7,1.9,0.7,3
			C389.2,461.1,389.2,461.4,389.2,461.9z M381.7,458.4c-0.5,0.4-0.8,1-0.9,1.7h5.4c-0.1-0.7-0.4-1.2-0.9-1.7
			c-0.5-0.4-1.1-0.6-1.8-0.6C382.8,457.8,382.2,458,381.7,458.4z"/>
		<path d="M392.1,455.5h3.2v4.3h4.8v-4.3h3.2v11H400v-4.1h-4.8v4.1h-3.2V455.5z"/>
		<path d="M419.1,463.9v5h-3v-2.4h-9.4v-11h3.2v8.4h4.4v-8.4h3.2v8.4H419.1z"/>
		<path d="M421.5,455.5h3.2v6.5l5.4-6.5h2.9v11h-3.2V460l-5.3,6.5h-2.9V455.5z"/>
		<path d="M436.4,455.5h3.2v6.5l5.4-6.5h2.9v11h-3.2V460l-5.3,6.5h-2.9V455.5z M438.3,451.2h2.1c0,0.5,0.1,0.8,0.4,1.1
			s0.6,0.4,1.1,0.4c0.5,0,0.9-0.1,1.1-0.4s0.4-0.6,0.4-1.1h2.1c0,2.1-1.2,3.2-3.6,3.2C439.5,454.3,438.3,453.3,438.3,451.2z"/>
	</g>
</g>
<polygon class="st2" points="917.2,469 765.1,469 765.1,428 917.2,428 931.3,448.5 "/>
<g>
	<g>
		<path d="M802.1,441.3v14.3h-3.3V444h-6.5v11.6h-3.3v-14.3H802.1z"/>
		<path d="M815.1,445.2c0.8,0.5,1.5,1.1,2,2c0.5,0.9,0.7,1.8,0.7,3s-0.2,2.1-0.7,3s-1.1,1.5-2,2c-0.8,0.5-1.8,0.7-2.8,0.7
			c-1.4,0-2.5-0.4-3.3-1.3v5.1h-3.2v-15h3v1.3c0.8-1,1.9-1.4,3.5-1.4C813.3,444.5,814.3,444.7,815.1,445.2z M813.8,452.3
			c0.5-0.6,0.8-1.3,0.8-2.2c0-0.9-0.3-1.7-0.8-2.2c-0.5-0.6-1.2-0.8-2-0.8s-1.5,0.3-2,0.8c-0.5,0.6-0.8,1.3-0.8,2.2
			c0,0.9,0.3,1.7,0.8,2.2s1.2,0.8,2,0.8S813.2,452.9,813.8,452.3z"/>
		<path d="M822.4,455.1c-0.9-0.5-1.6-1.2-2.2-2c-0.5-0.9-0.8-1.8-0.8-2.9s0.3-2.1,0.8-2.9c0.5-0.9,1.2-1.5,2.2-2
			c0.9-0.5,2-0.7,3.1-0.7c1.2,0,2.2,0.2,3.1,0.7c0.9,0.5,1.6,1.2,2.1,2c0.5,0.9,0.8,1.8,0.8,2.9s-0.3,2.1-0.8,2.9
			c-0.5,0.9-1.2,1.5-2.1,2c-0.9,0.5-1.9,0.7-3.1,0.7C824.4,455.8,823.4,455.5,822.4,455.1z M827.6,452.3c0.5-0.6,0.8-1.3,0.8-2.2
			c0-0.9-0.3-1.7-0.8-2.2c-0.5-0.6-1.2-0.8-2-0.8s-1.5,0.3-2,0.8c-0.5,0.6-0.8,1.3-0.8,2.2c0,0.9,0.3,1.7,0.8,2.2s1.2,0.8,2,0.8
			S827.1,452.9,827.6,452.3z"/>
		<path d="M844.1,444.6v11h-3.2v-4.1c-0.9,0.5-1.9,0.7-3.1,0.7c-1.5,0-2.6-0.3-3.4-1c-0.8-0.7-1.1-1.7-1.1-3.1v-3.5h3.2v3.2
			c0,0.7,0.2,1.2,0.5,1.5s0.8,0.4,1.5,0.4c0.8,0,1.6-0.2,2.3-0.5v-4.6H844.1z"/>
		<path d="M856.8,447.2h-3.7v8.4h-3.2v-8.4h-3.7v-2.6h10.6V447.2z"/>
		<path d="M858.9,444.6h3.2v6.5l5.4-6.5h2.9v11h-3.2v-6.5l-5.3,6.5h-2.9V444.6z"/>
		<path d="M883,447.2h-3.7v8.4h-3.2v-8.4h-3.7v-2.6H883V447.2z"/>
		<path d="M895.8,451h-8.3c0.1,0.7,0.5,1.2,1.1,1.6c0.6,0.4,1.3,0.6,2.1,0.6c0.6,0,1.1-0.1,1.5-0.3c0.4-0.2,0.9-0.4,1.2-0.8l1.7,1.8
			c-1,1.2-2.5,1.8-4.5,1.8c-1.2,0-2.3-0.2-3.3-0.7c-1-0.5-1.7-1.2-2.2-2c-0.5-0.9-0.8-1.8-0.8-2.9c0-1.1,0.3-2,0.8-2.9
			s1.2-1.5,2.1-2c0.9-0.5,1.9-0.7,3-0.7c1.1,0,2,0.2,2.9,0.7c0.9,0.5,1.6,1.1,2.1,2c0.5,0.9,0.7,1.9,0.7,3
			C895.8,450.2,895.8,450.5,895.8,451z M888.3,447.5c-0.5,0.4-0.8,1-0.9,1.7h5.4c-0.1-0.7-0.4-1.2-0.9-1.7c-0.5-0.4-1.1-0.6-1.8-0.6
			C889.4,446.9,888.8,447.1,888.3,447.5z"/>
	</g>
</g>
<g>
</g>
<g>
</g>
<g>
</g>
<g>
</g>
<g>
</g>
<g>
</g>
<g>
</g>
<g>
</g>
<g>
</g>
<g>
</g>
<g>
</g>
<g>
</g>
<g>
</g>
<g>
</g>
<g>
</g>
</svg>
